<svg width="186" height="35" viewBox="0 0 186 35" fill="none" xmlns="http://www.w3.org/2000/svg">
<path d="M77.5395 5C80.3049 5 82.514 5.8872 84.1668 7.6616C85.8515 9.40431 86.6938 11.7807 86.6938 14.7909V29.3821H81.5445V15.3137C81.5445 13.5393 81.0677 12.1768 80.1142 11.2262C79.1606 10.2757 77.8574 9.80038 76.2045 9.80038C74.3291 9.80038 72.8511 10.3866 71.7704 11.5589C70.6897 12.6996 70.1493 14.3948 70.1493 16.6445V29.3821H65V5.61787H70.1493V8.6597C71.7386 6.2199 74.202 5 77.5395 5Z" fill="#F9F9FA"/>
<path d="M108.306 18.3555V5.61787H113.455V29.3821H108.306V26.3403C106.717 28.7801 104.253 30 100.916 30C98.1505 30 95.9255 29.1286 94.2408 27.3859C92.588 25.6115 91.7615 23.2193 91.7615 20.2091V5.61787H96.9108V19.6863C96.9108 21.4607 97.3876 22.8232 98.3412 23.7738C99.2948 24.7243 100.598 25.1996 102.251 25.1996C104.126 25.1996 105.604 24.6293 106.685 23.4886C107.766 22.3162 108.306 20.6052 108.306 18.3555Z" fill="#F9F9FA"/>
<path d="M124.626 5.61787V9.61027C125.929 6.6635 128.377 5.19011 131.968 5.19011V10.7509C130.03 10.6242 128.313 11.0995 126.819 12.1768C125.357 13.2224 124.626 14.9651 124.626 17.4049V29.3821H119.477V5.61787H124.626Z" fill="#F9F9FA"/>
<path d="M153.536 8.99239V5.61787H158.686V29.3821H153.536V25.9601C151.597 28.6534 148.816 30 145.193 30C141.919 30 139.122 28.7959 136.801 26.3878C134.481 23.9797 133.321 21.0171 133.321 17.5C133.321 13.9829 134.481 11.0203 136.801 8.61217C139.122 6.20406 141.919 5 145.193 5C148.816 5 151.597 6.3308 153.536 8.99239ZM140.615 22.9658C142.046 24.3916 143.842 25.1046 146.003 25.1046C148.165 25.1046 149.96 24.3916 151.391 22.9658C152.821 21.5082 153.536 19.6863 153.536 17.5C153.536 15.3137 152.821 13.5076 151.391 12.0817C149.96 10.6242 148.165 9.89544 146.003 9.89544C143.842 9.89544 142.046 10.6242 140.615 12.0817C139.185 13.5076 138.47 15.3137 138.47 17.5C138.47 19.6546 139.185 21.4766 140.615 22.9658Z" fill="#F9F9FA"/>
<path d="M177.084 17.2148L186 29.3821H180.04L174.128 21.2548L168.168 29.3821H162.161L171.124 17.1673L162.637 5.61787H168.597L174.08 13.1274L179.563 5.61787H185.571L177.084 17.2148Z" fill="#F9F9FA"/>
<path d="M15.1556 0L31.9772 11.6547L35.7928 0H45C43.9077 2.64619 39.4725 15.5505 39.4725 15.5505C37.2833 21.5636 31.0467 21.518 27.3914 18.9208C27.3914 18.9208 7.43792 6.27951 0 0H15.1556Z" fill="#2D63F3"/>
<path d="M5.52745 19.4493C7.71667 13.4363 13.9533 13.4818 17.6086 16.079C17.6086 16.079 37.5621 28.7204 45 34.9999H29.8444L13.0228 23.3451L9.20721 34.9999H0C1.09226 32.3537 5.52745 19.4493 5.52745 19.4493Z" fill="#2DDCF3"/>
</svg>
