<svg width="197" height="216" viewBox="0 0 197 216" fill="none" xmlns="http://www.w3.org/2000/svg">
<g opacity="0.35">
<rect y="16" width="2" height="2" fill="white"/>
<rect y="52" width="2" height="2" fill="white"/>
<rect y="88" width="2" height="2" fill="white"/>
<rect y="124" width="2" height="2" fill="white"/>
<rect y="160" width="2" height="2" fill="white"/>
<rect y="196" width="2" height="2" fill="white"/>
<rect y="34" width="2" height="2" fill="white"/>
<rect y="70" width="2" height="2" fill="white"/>
<rect y="106" width="2" height="2" fill="white"/>
<rect y="142" width="2" height="2" fill="white"/>
<rect y="178" width="2" height="2" fill="white"/>
<rect y="214" width="2" height="2" fill="white"/>
<rect x="18" y="16" width="2" height="2" fill="white"/>
<rect x="18" y="52" width="2" height="2" fill="white"/>
<rect x="18" y="88" width="2" height="2" fill="white"/>
<rect x="18" y="124" width="2" height="2" fill="white"/>
<rect x="18" y="160" width="2" height="2" fill="white"/>
<rect x="18" y="196" width="2" height="2" fill="white"/>
<rect x="18" y="34" width="2" height="2" fill="white"/>
<rect x="18" y="70" width="2" height="2" fill="white"/>
<rect x="18" y="106" width="2" height="2" fill="white"/>
<rect x="18" y="142" width="2" height="2" fill="white"/>
<rect x="18" y="178" width="2" height="2" fill="white"/>
<rect x="18" y="214" width="2" height="2" fill="white"/>
<rect x="36" y="16" width="2" height="2" fill="white"/>
<rect x="36" y="52" width="2" height="2" fill="white"/>
<rect x="36" y="88" width="2" height="2" fill="white"/>
<rect x="36" y="124" width="2" height="2" fill="white"/>
<rect x="36" y="160" width="2" height="2" fill="white"/>
<rect x="36" y="196" width="2" height="2" fill="white"/>
<rect x="36" y="34" width="2" height="2" fill="white"/>
<rect x="36" y="70" width="2" height="2" fill="white"/>
<rect x="36" y="106" width="2" height="2" fill="white"/>
<rect x="36" y="142" width="2" height="2" fill="white"/>
<rect x="36" y="178" width="2" height="2" fill="white"/>
<rect x="36" y="214" width="2" height="2" fill="white"/>
<rect x="54" y="16" width="2" height="2" fill="white"/>
<rect x="54" y="52" width="2" height="2" fill="white"/>
<rect x="54" y="88" width="2" height="2" fill="white"/>
<rect x="54" y="124" width="2" height="2" fill="white"/>
<rect x="54" y="160" width="2" height="2" fill="white"/>
<rect x="54" y="196" width="2" height="2" fill="white"/>
<rect x="54" y="34" width="2" height="2" fill="white"/>
<rect x="54" y="70" width="2" height="2" fill="white"/>
<rect x="54" y="106" width="2" height="2" fill="white"/>
<rect x="54" y="142" width="2" height="2" fill="white"/>
<rect x="54" y="178" width="2" height="2" fill="white"/>
<rect x="54" y="214" width="2" height="2" fill="white"/>
<rect x="72" y="16" width="2" height="2" fill="white"/>
<rect x="72" y="52" width="2" height="2" fill="white"/>
<rect x="72" y="88" width="2" height="2" fill="white"/>
<rect x="72" y="124" width="2" height="2" fill="white"/>
<rect x="72" y="160" width="2" height="2" fill="white"/>
<rect x="72" y="196" width="2" height="2" fill="white"/>
<rect x="72" y="34" width="2" height="2" fill="white"/>
<rect x="72" y="70" width="2" height="2" fill="white"/>
<rect x="72" y="106" width="2" height="2" fill="white"/>
<rect x="72" y="142" width="2" height="2" fill="white"/>
<rect x="72" y="178" width="2" height="2" fill="white"/>
<rect x="72" y="214" width="2" height="2" fill="white"/>
<rect x="90" y="16" width="2" height="2" fill="white"/>
<rect x="90" y="52" width="2" height="2" fill="white"/>
<rect x="90" y="88" width="2" height="2" fill="white"/>
<rect x="90" y="124" width="2" height="2" fill="white"/>
<rect x="90" y="160" width="2" height="2" fill="white"/>
<rect x="90" y="196" width="2" height="2" fill="white"/>
<rect x="90" y="34" width="2" height="2" fill="white"/>
<rect x="90" y="70" width="2" height="2" fill="white"/>
<rect x="90" y="106" width="2" height="2" fill="white"/>
<rect x="90" y="142" width="2" height="2" fill="white"/>
<rect x="90" y="178" width="2" height="2" fill="white"/>
<rect x="90" y="214" width="2" height="2" fill="white"/>
<rect x="108" y="16" width="2" height="2" fill="white"/>
<rect x="108" y="52" width="2" height="2" fill="white"/>
<rect x="108" y="88" width="2" height="2" fill="white"/>
<rect x="108" y="124" width="2" height="2" fill="white"/>
<rect x="108" y="160" width="2" height="2" fill="white"/>
<rect x="108" y="196" width="2" height="2" fill="white"/>
<rect x="108" y="34" width="2" height="2" fill="white"/>
<rect x="108" y="70" width="2" height="2" fill="white"/>
<rect x="108" y="106" width="2" height="2" fill="white"/>
<rect x="108" y="142" width="2" height="2" fill="white"/>
<rect x="108" y="178" width="2" height="2" fill="white"/>
<rect x="108" y="214" width="2" height="2" fill="white"/>
<rect x="126" y="16" width="2" height="2" fill="white"/>
<rect x="126" y="52" width="2" height="2" fill="white"/>
<rect x="126" y="88" width="2" height="2" fill="white"/>
<rect x="126" y="124" width="2" height="2" fill="white"/>
<rect x="126" y="160" width="2" height="2" fill="white"/>
<rect x="126" y="196" width="2" height="2" fill="white"/>
<rect x="126" y="34" width="2" height="2" fill="white"/>
<rect x="126" y="70" width="2" height="2" fill="white"/>
<rect x="126" y="106" width="2" height="2" fill="white"/>
<rect x="126" y="142" width="2" height="2" fill="white"/>
<rect x="126" y="178" width="2" height="2" fill="white"/>
<rect x="126" y="214" width="2" height="2" fill="white"/>
<rect x="144" y="16" width="2" height="2" fill="white"/>
<rect x="144" y="52" width="2" height="2" fill="white"/>
<rect x="144" y="88" width="2" height="2" fill="white"/>
<rect x="144" y="124" width="2" height="2" fill="white"/>
<rect x="144" y="160" width="2" height="2" fill="white"/>
<rect x="144" y="196" width="2" height="2" fill="white"/>
<rect x="144" y="34" width="2" height="2" fill="white"/>
<rect x="144" y="70" width="2" height="2" fill="white"/>
<rect x="144" y="106" width="2" height="2" fill="white"/>
<rect x="144" y="142" width="2" height="2" fill="white"/>
<rect x="144" y="178" width="2" height="2" fill="white"/>
<rect x="144" y="214" width="2" height="2" fill="white"/>
<rect x="162" y="16" width="2" height="2" fill="white"/>
<rect x="162" y="52" width="2" height="2" fill="white"/>
<rect x="162" y="88" width="2" height="2" fill="white"/>
<rect x="162" y="124" width="2" height="2" fill="white"/>
<rect x="162" y="160" width="2" height="2" fill="white"/>
<rect x="162" y="196" width="2" height="2" fill="white"/>
<rect x="162" y="34" width="2" height="2" fill="white"/>
<rect x="162" y="70" width="2" height="2" fill="white"/>
<rect x="162" y="106" width="2" height="2" fill="white"/>
<rect x="162" y="142" width="2" height="2" fill="white"/>
<rect x="162" y="178" width="2" height="2" fill="white"/>
<rect x="162" y="214" width="2" height="2" fill="white"/>
<rect x="180" y="16" width="2" height="2" fill="white"/>
<rect x="180" y="52" width="2" height="2" fill="white"/>
<rect x="180" y="88" width="2" height="2" fill="white"/>
<rect x="180" y="124" width="2" height="2" fill="white"/>
<rect x="180" y="160" width="2" height="2" fill="white"/>
<rect x="180" y="196" width="2" height="2" fill="white"/>
<rect x="180" y="34" width="2" height="2" fill="white"/>
<rect x="180" y="70" width="2" height="2" fill="white"/>
<rect x="180" y="106" width="2" height="2" fill="white"/>
<rect x="180" y="142" width="2" height="2" fill="white"/>
<rect x="180" y="178" width="2" height="2" fill="white"/>
<rect x="180" y="214" width="2" height="2" fill="white"/>
</g>
</svg>
