<svg width="1440" height="450" viewBox="0 0 1440 450" fill="none" xmlns="http://www.w3.org/2000/svg">
<path d="M-234.267 224.833L720.013 775.916L719.737 776.393L-234.542 225.311L-234.267 224.833Z" fill="url(#paint0_radial_12_3160)"/>
<path fill-rule="evenodd" clip-rule="evenodd" d="M717.729 -325.047L717.867 -324.809L687.521 -307.285L719.409 -288.871L750.029 -306.553L750.167 -306.315L750.305 -306.076L719.96 -288.552L751.846 -270.138L782.467 -287.821L782.742 -287.344L752.397 -269.82L784.284 -251.406L814.905 -269.088L815.18 -268.612L784.835 -251.088L816.722 -232.673L847.343 -250.356L847.618 -249.879L817.273 -232.356L849.16 -213.941L879.78 -231.624L880.056 -231.147L849.71 -213.623L881.597 -195.209L912.218 -212.891L912.493 -212.415L882.148 -194.891L914.036 -176.476L944.656 -194.159L944.931 -193.682L914.586 -176.159L946.473 -157.744L977.094 -175.427L977.232 -175.188L977.369 -174.95L947.024 -157.426L978.911 -139.012L1009.53 -156.694L1009.67 -156.456L1009.81 -156.217L979.462 -138.694L1011.35 -120.279L1041.97 -137.962L1042.24 -137.485L1011.9 -119.961L1043.79 -101.547L1074.41 -119.23L1074.68 -118.752L1044.34 -101.229L1076.22 -82.8146L1106.84 -100.497L1107.12 -100.02L1076.77 -82.4966L1108.66 -64.0822L1139.28 -81.7649L1139.56 -81.2876L1109.21 -63.7643L1141.1 -45.3499L1171.72 -63.0325L1172 -62.5553L1141.65 -45.0319L1173.54 -26.6176L1204.16 -44.3002L1204.43 -43.823L1174.09 -26.2996L1205.98 -7.88525L1236.6 -25.5679L1236.73 -25.3295L1236.87 -25.0906L1206.53 -7.56726L1238.41 10.8471L1269.03 -6.83554L1269.31 -6.35828L1238.96 11.1651L1270.85 29.5794L1301.47 11.8968L1301.75 12.3741L1271.4 29.8974L1303.29 48.3118L1333.91 30.6292L1334.18 31.1064L1303.84 48.6298L1335.73 67.0441L1366.35 49.3615L1366.62 49.8387L1336.28 67.3621L1368.16 85.7764L1398.78 68.0938L1399.06 68.571L1368.71 86.0944L1400.6 104.509L1431.22 86.8261L1431.5 87.3034L1401.15 104.827L1433.04 123.241L1463.66 105.558L1463.94 106.036L1433.59 123.559L1465.48 141.973L1496.1 124.291L1496.37 124.768L1466.03 142.291L1497.92 160.706L1528.54 143.023L1528.81 143.5L1498.47 161.024L1530.35 179.438L1560.97 161.755L1561.25 162.233L1530.9 179.756L1562.79 198.17L1593.41 180.488L1593.69 180.965L1563.34 198.488L1595.23 216.903L1625.85 199.22L1626.12 199.697L1595.78 217.221L1627.67 235.635L1658.29 217.953L1658.56 218.43L1628.22 235.953L1641.63 243.697L1641.35 244.174L1627.67 236.271L1595.3 254.961L1608.71 262.705L1608.44 263.182L1594.75 255.279L1562.39 273.969L1575.8 281.713L1575.52 282.19L1561.84 274.287L1529.47 292.977L1542.88 300.721L1542.61 301.198L1528.92 293.295L1496.56 311.984L1509.97 319.728L1509.69 320.206L1496.01 312.303L1463.64 330.992L1477.05 338.736L1476.78 339.213L1463.09 331.311L1430.73 350L1444.14 357.744L1443.86 358.221L1430.18 350.318L1397.81 369.008L1411.22 376.752L1410.95 377.229L1397.26 369.326L1364.9 388.016L1378.31 395.76L1378.03 396.237L1364.35 388.334L1331.98 407.023L1345.39 414.767L1345.12 415.245L1331.43 407.342L1299.07 426.031L1312.48 433.775L1312.2 434.252L1298.52 426.35L1266.15 445.039L1279.56 452.783L1279.29 453.26L1265.6 445.358L1233.24 464.047L1246.65 471.791L1246.37 472.268L1232.69 464.365L1200.33 483.055L1213.73 490.799L1213.46 491.276L1199.77 483.373L1167.41 502.062L1180.82 509.806L1180.54 510.284L1166.86 502.38L1134.5 521.07L1147.9 528.814L1147.63 529.292L1133.94 521.388L1101.58 540.078L1114.99 547.822L1114.71 548.299L1101.03 540.397L1068.67 559.086L1082.08 566.83L1081.8 567.307L1068.12 559.404L1035.75 578.094L1049.16 585.838L1048.89 586.315L1035.2 578.412L1002.84 597.102L1016.25 604.846L1015.97 605.323L1002.29 597.42L969.922 616.109L983.331 623.853L983.056 624.331L969.371 616.428L937.007 635.117L950.416 642.861L950.141 643.338L936.456 635.436L904.092 654.125L917.501 661.869L917.226 662.346L903.541 654.443L871.177 673.133L884.586 680.877L884.311 681.354L870.627 673.451L838.263 692.141L851.672 699.885L851.396 700.362L837.712 692.459L805.348 711.148L818.757 718.892L818.482 719.37L804.797 711.467L772.433 730.156L785.842 737.9L785.567 738.377L771.882 730.475L739.519 749.164L752.928 756.908L752.652 757.385L738.967 749.483L738.62 749.683L738.345 749.206L738.416 749.164L706.529 730.75L706.182 730.951L705.907 730.474L705.979 730.432L674.092 712.018L673.745 712.219L673.469 711.741L673.541 711.699L641.654 693.286L641.307 693.486L641.031 693.009L641.103 692.967L609.216 674.553L608.869 674.754L608.593 674.277L608.665 674.235L576.779 655.82L576.431 656.022L576.156 655.544L576.227 655.502L544.341 637.088L543.993 637.289L543.718 636.812L543.789 636.77L511.903 618.356L511.556 618.557L511.28 618.08L511.352 618.038L479.465 599.624L479.118 599.825L478.843 599.347L478.914 599.305L447.027 580.892L446.68 581.092L446.405 580.615L446.476 580.573L414.589 562.159L414.242 562.36L413.967 561.883L414.039 561.841L382.152 543.426L381.804 543.628L381.529 543.15L381.601 543.108L349.714 524.694L349.367 524.895L349.091 524.418L349.163 524.376L317.276 505.962L316.929 506.163L316.653 505.686L316.725 505.644L284.839 487.229L284.491 487.431L284.216 486.953L284.288 486.911L252.401 468.497L252.053 468.698L251.778 468.221L251.85 468.179L219.963 449.765L219.616 449.966L219.478 449.727L219.34 449.489L219.412 449.447L187.524 431.032L187.177 431.233L186.902 430.756L186.974 430.714L155.087 412.3L154.74 412.501L154.464 412.024L154.536 411.982L122.649 393.568L122.302 393.768L122.027 393.292L122.099 393.25L90.2112 374.835L89.8642 375.036L89.5888 374.559L89.6609 374.517L57.7735 356.103L57.4265 356.304L57.1511 355.827L57.2232 355.785L25.3358 337.371L24.9888 337.571L24.7134 337.095L24.7855 337.053L-7.10196 318.638L-7.44891 318.839L-7.72432 318.362L-7.65225 318.32L-39.5397 299.906L-39.8866 300.107L-40.162 299.63L-40.09 299.588L-71.9779 281.174L-72.3249 281.374L-72.6003 280.898L-72.5282 280.856L-104.416 262.441L-104.763 262.642L-105.038 262.165L-104.966 262.123L-136.853 243.709L-137.2 243.91L-137.476 243.432L-137.404 243.39L-169.291 224.977L-169.638 225.177L-169.913 224.7L-169.842 224.658L-201.627 206.303L-201.527 206.127L-202.076 206.445L-202.351 205.968L717.592 -325.285L717.729 -325.047ZM707.08 730.432L738.967 748.846L771.331 730.156L739.444 711.742L707.08 730.432ZM674.643 711.699L706.529 730.114L738.893 711.424L707.007 693.01L674.643 711.699ZM739.995 711.424L771.882 729.838L804.246 711.148L772.359 692.735L739.995 711.424ZM642.205 692.967L674.092 711.381L706.456 692.692L674.569 674.278L642.205 692.967ZM707.557 692.692L739.444 711.106L771.808 692.416L739.921 674.002L707.557 692.692ZM772.91 692.416L804.797 710.83L837.16 692.141L805.274 673.727L772.91 692.416ZM609.767 674.235L641.654 692.649L674.018 673.959L642.131 655.545L609.767 674.235ZM675.12 673.959L707.007 692.374L739.371 673.684L707.484 655.27L675.12 673.959ZM740.472 673.684L772.359 692.098L804.723 673.409L772.836 654.994L740.472 673.684ZM805.825 673.408L837.712 691.823L870.075 673.133L838.189 654.719L805.825 673.408ZM577.329 655.502L609.216 673.917L641.58 655.227L609.693 636.812L577.329 655.502ZM642.682 655.227L674.569 673.641L706.932 654.951L675.046 636.537L642.682 655.227ZM708.035 654.951L739.921 673.366L772.285 654.676L740.399 636.262L708.035 654.951ZM773.387 654.676L805.274 673.09L837.637 654.4L805.751 635.987L773.387 654.676ZM838.74 654.4L870.627 672.815L902.99 654.125L871.103 635.711L838.74 654.4ZM544.892 636.77L576.779 655.184L609.142 636.495L577.255 618.08L544.892 636.77ZM610.244 636.495L642.131 654.909L674.495 636.219L642.608 617.805L610.244 636.495ZM675.597 636.219L707.484 654.633L739.847 635.944L707.96 617.53L675.597 636.219ZM740.949 635.944L772.836 654.358L805.2 635.669L773.313 617.254L740.949 635.944ZM806.302 635.669L838.189 654.082L870.552 635.393L838.665 616.979L806.302 635.669ZM871.655 635.393L903.541 653.807L935.905 635.117L904.018 616.703L871.655 635.393ZM512.454 618.038L544.341 636.452L576.704 617.762L544.817 599.348L512.454 618.038ZM577.807 617.762L609.693 636.177L642.057 617.487L610.17 599.072L577.807 617.762ZM643.159 617.487L675.046 635.901L707.409 617.211L675.523 598.797L643.159 617.487ZM708.512 617.211L740.399 635.626L772.762 616.936L740.875 598.522L708.512 617.211ZM773.864 616.936L805.751 635.35L838.115 616.66L806.228 598.246L773.864 616.936ZM839.217 616.66L871.103 635.075L903.467 616.385L871.58 597.971L839.217 616.66ZM904.569 616.385L936.456 634.799L968.82 616.109L936.933 597.695L904.569 616.385ZM480.016 599.305L511.903 617.72L544.267 599.03L512.38 580.616L480.016 599.305ZM545.369 599.03L577.256 617.444L609.619 598.754L577.732 580.34L545.369 599.03ZM610.721 598.754L642.608 617.169L674.972 598.479L643.085 580.065L610.721 598.754ZM676.074 598.479L707.961 616.893L740.324 598.203L708.437 579.79L676.074 598.479ZM741.426 598.203L773.313 616.618L805.677 597.928L773.79 579.514L741.426 598.203ZM806.779 597.928L838.665 616.342L871.029 597.652L839.143 579.239L806.779 597.928ZM872.132 597.652L904.018 616.067L936.382 597.377L904.495 578.963L872.132 597.652ZM937.484 597.377L969.371 615.791L1001.73 597.102L969.848 578.688L937.484 597.377ZM447.579 580.573L479.465 598.987L511.829 580.298L479.942 561.884L447.579 580.573ZM512.931 580.298L544.817 598.712L577.181 580.022L545.295 561.608L512.931 580.298ZM578.284 580.022L610.17 598.436L642.534 579.747L610.647 561.333L578.284 580.022ZM643.636 579.747L675.523 598.161L707.887 579.471L676 561.057L643.636 579.747ZM708.988 579.471L740.875 597.885L773.239 579.196L741.352 560.782L708.988 579.471ZM774.341 579.196L806.228 597.61L838.592 578.92L806.705 560.506L774.341 579.196ZM839.693 578.92L871.58 597.334L903.944 578.645L872.057 560.231L839.693 578.92ZM905.046 578.645L936.933 597.059L969.297 578.369L937.41 559.955L905.046 578.645ZM970.399 578.369L1002.29 596.784L1034.65 578.094L1002.76 559.68L970.399 578.369ZM415.141 561.841L447.027 580.255L479.391 561.565L447.504 543.151L415.141 561.841ZM480.493 561.565L512.38 579.98L544.744 561.29L512.857 542.875L480.493 561.565ZM545.846 561.29L577.732 579.704L610.096 561.014L578.209 542.6L545.846 561.29ZM611.198 561.014L643.085 579.429L675.449 560.739L643.562 542.325L611.198 561.014ZM676.551 560.739L708.437 579.153L740.801 560.463L708.915 542.049L676.551 560.739ZM741.903 560.463L773.79 578.878L806.154 560.188L774.267 541.774L741.903 560.463ZM807.256 560.188L839.143 578.602L871.507 559.912L839.62 541.499L807.256 560.188ZM872.608 559.912L904.495 578.327L936.859 559.637L904.972 541.223L872.608 559.912ZM937.961 559.637L969.848 578.051L1002.21 559.361L970.325 540.948L937.961 559.637ZM1003.31 559.361L1035.2 577.776L1067.56 559.086L1035.68 540.672L1003.31 559.361ZM382.703 543.108L414.589 561.523L446.953 542.833L415.067 524.419L382.703 543.108ZM448.055 542.833L479.942 561.247L512.306 542.557L480.419 524.144L448.055 542.833ZM513.408 542.557L545.295 560.972L577.659 542.282L545.772 523.868L513.408 542.557ZM578.76 542.282L610.647 560.696L643.011 542.006L611.124 523.593L578.76 542.282ZM644.113 542.006L676 560.421L708.364 541.731L676.477 523.317L644.113 542.006ZM709.465 541.731L741.352 560.145L773.716 541.455L741.829 523.042L709.465 541.731ZM774.818 541.455L806.705 559.87L839.069 541.18L807.182 522.766L774.818 541.455ZM840.171 541.18L872.057 559.594L904.421 540.905L872.535 522.491L840.171 541.18ZM905.523 540.905L937.41 559.319L969.774 540.629L937.887 522.215L905.523 540.905ZM970.876 540.629L1002.76 559.043L1035.13 540.354L1003.24 521.94L970.876 540.629ZM1036.23 540.354L1068.12 558.768L1100.48 540.078L1068.59 521.664L1036.23 540.354ZM350.265 524.376L382.152 542.79L414.516 524.101L382.629 505.686L350.265 524.376ZM415.617 524.101L447.504 542.515L479.868 523.825L447.981 505.411L415.617 524.101ZM480.97 523.825L512.857 542.239L545.221 523.55L513.334 505.136L480.97 523.825ZM546.323 523.55L578.209 541.964L610.573 523.274L578.687 504.86L546.323 523.55ZM611.675 523.274L643.562 541.688L675.926 522.999L644.039 504.585L611.675 523.274ZM677.028 522.999L708.915 541.413L741.279 522.723L709.392 504.309L677.028 522.999ZM742.38 522.723L774.267 541.138L806.631 522.448L774.744 504.034L742.38 522.723ZM807.733 522.448L839.62 540.862L871.984 522.172L840.097 503.758L807.733 522.448ZM873.085 522.172L904.972 540.587L937.336 521.897L905.449 503.482L873.085 522.172ZM938.438 521.897L970.325 540.311L1002.69 521.621L970.802 503.207L938.438 521.897ZM1003.79 521.621L1035.68 540.036L1068.04 521.346L1036.15 502.932L1003.79 521.621ZM1069.14 521.346L1101.03 539.76L1133.39 521.07L1101.51 502.656L1069.14 521.346ZM317.827 505.644L349.714 524.058L382.078 505.368L350.191 486.954L317.827 505.644ZM383.18 505.368L415.067 523.783L447.431 505.093L415.544 486.678L383.18 505.368ZM448.532 505.093L480.419 523.507L512.783 504.817L480.896 486.403L448.532 505.093ZM513.885 504.817L545.772 523.232L578.135 504.542L546.249 486.128L513.885 504.817ZM579.237 504.542L611.124 522.956L643.488 504.266L611.601 485.852L579.237 504.542ZM644.59 504.266L676.477 522.681L708.84 503.991L676.954 485.577L644.59 504.266ZM709.943 503.991L741.829 522.405L774.193 503.715L742.307 485.302L709.943 503.991ZM775.295 503.715L807.182 522.13L839.545 503.44L807.659 485.026L775.295 503.715ZM840.648 503.44L872.535 521.854L904.899 503.164L873.012 484.751L840.648 503.44ZM906 503.164L937.887 521.579L970.251 502.889L938.364 484.475L906 503.164ZM971.353 502.889L1003.24 521.303L1035.6 502.614L1003.72 484.2L971.353 502.889ZM1036.71 502.613L1068.59 521.028L1100.96 502.338L1069.07 483.924L1036.71 502.613ZM1102.06 502.338L1133.94 520.752L1166.31 502.062L1134.42 483.648L1102.06 502.338ZM285.389 486.911L317.276 505.326L349.64 486.636L317.753 468.221L285.389 486.911ZM350.742 486.636L382.629 505.05L414.993 486.36L383.106 467.946L350.742 486.636ZM416.095 486.36L447.981 504.775L480.345 486.085L448.458 467.671L416.095 486.36ZM481.447 486.085L513.334 504.499L545.698 485.809L513.811 467.396L481.447 486.085ZM546.8 485.809L578.687 504.224L611.05 485.534L579.164 467.12L546.8 485.809ZM612.152 485.534L644.039 503.948L676.403 485.258L644.516 466.845L612.152 485.534ZM677.505 485.258L709.392 503.673L741.755 484.983L709.869 466.569L677.505 485.258ZM742.857 484.983L774.744 503.397L807.108 484.708L775.221 466.294L742.857 484.983ZM808.21 484.708L840.097 503.122L872.46 484.432L840.573 466.018L808.21 484.708ZM873.562 484.432L905.449 502.846L937.813 484.157L905.927 465.742L873.562 484.432ZM938.915 484.157L970.802 502.571L1003.17 483.881L971.279 465.467L938.915 484.157ZM1004.27 483.881L1036.15 502.295L1068.52 483.606L1036.63 465.192L1004.27 483.881ZM1069.62 483.606L1101.51 502.02L1133.87 483.33L1101.98 464.916L1069.62 483.606ZM1134.97 483.33L1166.86 501.745L1199.22 483.055L1167.34 464.641L1134.97 483.33ZM252.952 468.179L284.839 486.593L317.202 467.904L285.316 449.489L252.952 468.179ZM318.304 467.904L350.191 486.318L382.555 467.628L350.668 449.214L318.304 467.904ZM383.657 467.628L415.544 486.042L447.907 467.353L416.02 448.938L383.657 467.628ZM449.009 467.353L480.896 485.767L513.26 467.077L481.373 448.663L449.009 467.353ZM514.361 467.077L546.248 485.491L578.612 466.802L546.725 448.387L514.361 467.077ZM579.715 466.802L611.601 485.216L643.965 466.526L612.078 448.112L579.715 466.802ZM645.067 466.526L676.954 484.94L709.317 466.251L677.431 447.837L645.067 466.526ZM710.42 466.251L742.307 484.665L774.67 465.975L742.783 447.561L710.42 466.251ZM775.772 465.975L807.659 484.39L840.023 465.7L808.136 447.286L775.772 465.975ZM841.125 465.7L873.012 484.114L905.375 465.424L873.488 447.01L841.125 465.7ZM906.477 465.424L938.364 483.839L970.728 465.149L938.841 446.735L906.477 465.424ZM971.83 465.149L1003.72 483.563L1036.08 464.873L1004.19 446.459L971.83 465.149ZM1037.18 464.873L1069.07 483.288L1101.43 464.598L1069.55 446.184L1037.18 464.873ZM1102.54 464.598L1134.42 483.012L1166.79 464.322L1134.9 445.909L1102.54 464.598ZM1167.89 464.322L1199.77 482.737L1232.14 464.047L1200.25 445.633L1167.89 464.322ZM220.514 449.447L252.401 467.861L284.764 449.171L252.878 430.757L220.514 449.447ZM285.867 449.171L317.753 467.586L350.117 448.896L318.231 430.481L285.867 449.171ZM351.219 448.896L383.106 467.31L415.469 448.62L383.583 430.206L351.219 448.896ZM416.572 448.62L448.459 467.035L480.822 448.345L448.935 429.931L416.572 448.62ZM481.924 448.345L513.811 466.759L546.175 448.069L514.288 429.655L481.924 448.345ZM547.276 448.069L579.163 466.484L611.527 447.794L579.64 429.379L547.276 448.069ZM612.629 447.794L644.516 466.208L676.88 447.518L644.993 429.104L612.629 447.794ZM677.982 447.518L709.869 465.933L742.232 447.243L710.345 428.829L677.982 447.518ZM743.334 447.243L775.221 465.657L807.585 446.967L775.698 428.553L743.334 447.243ZM808.687 446.967L840.574 465.382L872.937 446.692L841.051 428.278L808.687 446.967ZM874.04 446.692L905.926 465.106L938.29 446.416L906.403 428.003L874.04 446.692ZM939.392 446.416L971.279 464.831L1003.64 446.141L971.756 427.727L939.392 446.416ZM1004.74 446.141L1036.63 464.555L1069 445.865L1037.11 427.451L1004.74 446.141ZM1070.1 445.865L1101.98 464.28L1134.35 445.59L1102.46 427.176L1070.1 445.865ZM1135.45 445.59L1167.34 464.004L1199.7 445.315L1167.81 426.901L1135.45 445.59ZM1200.8 445.315L1232.69 463.729L1265.05 445.039L1233.17 426.625L1200.8 445.315ZM188.075 430.714L219.963 449.129L252.327 430.439L220.439 412.024L188.075 430.714ZM253.429 430.439L285.316 448.853L317.679 430.163L285.792 411.749L253.429 430.439ZM318.781 430.163L350.668 448.578L383.032 429.888L351.145 411.474L318.781 430.163ZM384.134 429.888L416.021 448.302L448.384 429.612L416.497 411.199L384.134 429.888ZM449.486 429.612L481.373 448.027L513.737 429.337L481.85 410.923L449.486 429.612ZM514.839 429.337L546.725 447.751L579.089 429.061L547.203 410.647L514.839 429.337ZM580.191 429.061L612.078 447.476L644.442 428.786L612.555 410.372L580.191 429.061ZM645.544 428.786L677.431 447.2L709.795 428.51L677.908 410.097L645.544 428.786ZM710.897 428.51L742.783 446.925L775.147 428.235L743.26 409.821L710.897 428.51ZM776.249 428.235L808.136 446.649L840.5 427.96L808.613 409.545L776.249 428.235ZM841.602 427.96L873.489 446.374L905.852 427.684L873.965 409.27L841.602 427.96ZM906.954 427.684L938.841 446.098L971.205 427.409L939.318 408.994L906.954 427.684ZM972.307 427.409L1004.19 445.823L1036.56 427.133L1004.67 408.719L972.307 427.409ZM1037.66 427.133L1069.55 445.547L1101.91 426.858L1070.02 408.444L1037.66 427.133ZM1103.01 426.858L1134.9 445.272L1167.26 426.582L1135.38 408.168L1103.01 426.858ZM1168.36 426.582L1200.25 444.997L1232.62 426.307L1200.73 407.893L1168.36 426.582ZM1233.72 426.307L1265.6 444.721L1297.97 426.031L1266.08 407.617L1233.72 426.307ZM155.637 411.981L187.525 430.396L219.889 411.706L188.001 393.292L155.637 411.981ZM220.99 411.706L252.877 430.121L285.241 411.431L253.354 393.017L220.99 411.706ZM286.344 411.431L318.231 429.845L350.594 411.156L318.707 392.741L286.344 411.431ZM351.696 411.156L383.583 429.57L415.947 410.88L384.06 392.466L351.696 411.156ZM417.048 410.88L448.935 429.294L481.299 410.605L449.412 392.191L417.048 410.88ZM482.401 410.605L514.288 429.019L546.652 410.329L514.765 391.915L482.401 410.605ZM547.753 410.329L579.64 428.743L612.004 410.054L580.117 391.639L547.753 410.329ZM613.106 410.054L644.993 428.468L677.357 409.778L645.47 391.364L613.106 410.054ZM678.459 409.778L710.345 428.193L742.709 409.503L710.823 391.089L678.459 409.778ZM743.811 409.503L775.698 427.917L808.062 409.227L776.175 390.813L743.811 409.503ZM809.164 409.227L841.051 427.642L873.415 408.952L841.528 390.538L809.164 409.227ZM874.517 408.952L906.404 427.366L938.767 408.676L906.88 390.262L874.517 408.952ZM939.869 408.676L971.756 427.091L1004.12 408.401L972.233 389.986L939.869 408.676ZM1005.22 408.401L1037.11 426.815L1069.47 408.125L1037.59 389.711L1005.22 408.401ZM1070.57 408.125L1102.46 426.54L1134.82 407.85L1102.94 389.436L1070.57 408.125ZM1135.93 407.85L1167.81 426.264L1200.18 407.574L1168.29 389.161L1135.93 407.85ZM1201.28 407.574L1233.17 425.989L1265.53 407.299L1233.64 388.885L1201.28 407.574ZM1266.63 407.299L1298.52 425.713L1330.88 407.023L1299 388.61L1266.63 407.299ZM123.2 393.249L155.087 411.664L187.451 392.974L155.564 374.56L123.2 393.249ZM188.552 392.974L220.44 411.388L252.804 392.699L220.916 374.284L188.552 392.974ZM253.905 392.698L285.792 411.113L318.156 392.423L286.269 374.009L253.905 392.698ZM319.258 392.423L351.145 410.838L383.509 392.148L351.622 373.734L319.258 392.423ZM384.611 392.148L416.497 410.562L448.861 391.872L416.975 373.458L384.611 392.148ZM449.963 391.872L481.85 410.287L514.214 391.597L482.327 373.182L449.963 391.872ZM515.316 391.597L547.203 410.011L579.567 391.321L547.68 372.907L515.316 391.597ZM580.668 391.321L612.555 409.736L644.919 391.046L613.032 372.631L580.668 391.321ZM646.021 391.046L677.908 409.46L710.272 390.77L678.385 372.356L646.021 391.046ZM711.373 390.77L743.26 409.185L775.624 390.495L743.737 372.081L711.373 390.77ZM776.726 390.495L808.613 408.909L840.977 390.219L809.09 371.806L776.726 390.495ZM842.078 390.219L873.965 408.634L906.329 389.944L874.443 371.53L842.078 390.219ZM907.431 389.944L939.318 408.358L971.682 389.668L939.795 371.255L907.431 389.944ZM972.784 389.668L1004.67 408.083L1037.03 389.393L1005.15 370.979L972.784 389.668ZM1038.14 389.393L1070.02 407.807L1102.39 389.117L1070.5 370.704L1038.14 389.393ZM1103.49 389.117L1135.38 407.532L1167.74 388.842L1135.85 370.428L1103.49 389.117ZM1168.84 388.842L1200.73 407.256L1233.09 388.567L1201.21 370.153L1168.84 388.842ZM1234.19 388.567L1266.08 406.981L1298.44 388.291L1266.56 369.877L1234.19 388.567ZM1299.55 388.291L1331.43 406.705L1363.8 388.016L1331.91 369.601L1299.55 388.291ZM90.762 374.517L122.649 392.932L155.013 374.242L123.126 355.827L90.762 374.517ZM156.115 374.241L188.002 392.656L220.366 373.966L188.479 355.552L156.115 374.241ZM221.467 373.966L253.355 392.381L285.719 373.691L253.831 355.276L221.467 373.966ZM286.82 373.69L318.707 392.105L351.071 373.415L319.184 355.001L286.82 373.69ZM352.173 373.415L384.06 391.83L416.424 373.14L384.537 354.726L352.173 373.415ZM417.525 373.14L449.412 391.554L481.776 372.864L449.889 354.451L417.525 373.14ZM482.878 372.864L514.765 391.279L547.129 372.589L515.242 354.175L482.878 372.864ZM548.231 372.589L580.117 391.003L612.481 372.313L580.595 353.899L548.231 372.589ZM613.583 372.313L645.47 390.728L677.834 372.038L645.947 353.624L613.583 372.313ZM678.936 372.038L710.823 390.452L743.187 371.763L711.3 353.348L678.936 372.038ZM744.288 371.763L776.175 390.177L808.539 371.487L776.652 353.073L744.288 371.763ZM809.641 371.487L841.528 389.901L873.892 371.212L842.005 352.797L809.641 371.487ZM874.993 371.212L906.88 389.626L939.244 370.936L907.357 352.522L874.993 371.212ZM940.346 370.936L972.233 389.35L1004.6 370.661L972.71 352.247L940.346 370.936ZM1005.7 370.661L1037.59 389.075L1069.95 370.385L1038.06 351.971L1005.7 370.661ZM1071.05 370.385L1102.94 388.799L1135.3 370.11L1103.42 351.696L1071.05 370.385ZM1136.4 370.11L1168.29 388.524L1200.65 369.834L1168.77 351.42L1136.4 370.11ZM1201.76 369.834L1233.64 388.249L1266.01 369.559L1234.12 351.145L1201.76 369.834ZM1267.11 369.559L1299 387.973L1331.36 369.283L1299.47 350.869L1267.11 369.559ZM1332.46 369.283L1364.35 387.698L1396.71 369.008L1364.83 350.593L1332.46 369.283ZM58.3243 355.785L90.2117 374.199L122.576 355.509L90.6883 337.095L58.3243 355.785ZM123.677 355.509L155.564 373.924L187.928 355.234L156.041 336.82L123.677 355.509ZM189.029 355.233L220.917 373.648L253.281 354.959L221.393 336.544L189.029 355.233ZM254.382 354.958L286.269 373.373L318.633 354.683L286.746 336.269L254.382 354.958ZM319.735 354.683L351.621 373.097L383.985 354.408L352.099 335.993L319.735 354.683ZM385.088 354.408L416.975 372.822L449.339 354.132L417.452 335.718L385.088 354.408ZM450.44 354.132L482.327 372.546L514.691 353.857L482.804 335.442L450.44 354.132ZM515.793 353.857L547.68 372.271L580.044 353.581L548.157 335.167L515.793 353.857ZM581.145 353.581L613.032 371.996L645.396 353.306L613.509 334.891L581.145 353.581ZM646.498 353.306L678.385 371.72L710.749 353.03L678.862 334.616L646.498 353.306ZM711.85 353.03L743.737 371.445L776.101 352.755L744.214 334.34L711.85 353.03ZM777.203 352.755L809.09 371.169L841.454 352.479L809.567 334.065L777.203 352.755ZM842.556 352.479L874.443 370.894L906.807 352.204L874.92 333.789L842.556 352.479ZM907.908 352.204L939.795 370.618L972.159 351.928L940.272 333.514L907.908 352.204ZM973.261 351.928L1005.15 370.343L1037.51 351.653L1005.62 333.239L973.261 351.928ZM1038.61 351.653L1070.5 370.067L1102.86 351.377L1070.98 332.963L1038.61 351.653ZM1103.97 351.377L1135.85 369.792L1168.22 351.102L1136.33 332.688L1103.97 351.377ZM1169.32 351.102L1201.21 369.516L1233.57 350.826L1201.68 332.412L1169.32 351.102ZM1234.67 350.826L1266.56 369.241L1298.92 350.551L1267.04 332.137L1234.67 350.826ZM1300.02 350.551L1331.91 368.965L1364.27 350.275L1332.39 331.861L1300.02 350.551ZM1365.38 350.275L1397.26 368.69L1429.63 350L1397.74 331.586L1365.38 350.275ZM25.8866 337.053L57.774 355.467L90.138 336.777L58.2506 318.363L25.8866 337.053ZM91.2391 336.777L123.127 355.192L155.491 336.502L123.603 318.087L91.2391 336.777ZM156.592 336.501L188.479 354.916L220.843 336.226L188.956 317.812L156.592 336.501ZM221.944 336.226L253.832 354.641L286.195 335.951L254.308 317.536L221.944 336.226ZM287.297 335.951L319.184 354.365L351.548 335.675L319.661 317.261L287.297 335.951ZM352.649 335.675L384.536 354.09L416.9 335.4L385.013 316.985L352.649 335.675ZM418.003 335.4L449.889 353.814L482.253 335.124L450.367 316.71L418.003 335.4ZM483.355 335.124L515.242 353.539L547.605 334.849L515.719 316.434L483.355 335.124ZM548.708 334.849L580.595 353.263L612.959 334.573L581.072 316.159L548.708 334.849ZM614.06 334.573L645.947 352.988L678.311 334.298L646.424 315.884L614.06 334.573ZM679.413 334.298L711.3 352.712L743.663 334.022L711.776 315.609L679.413 334.298ZM744.765 334.022L776.652 352.437L809.016 333.747L777.129 315.333L744.765 334.022ZM810.118 333.747L842.005 352.161L874.369 333.471L842.482 315.057L810.118 333.747ZM875.47 333.471L907.357 351.886L939.721 333.196L907.834 314.782L875.47 333.471ZM940.823 333.196L972.71 351.61L1005.07 332.92L973.187 314.506L940.823 333.196ZM1006.18 332.92L1038.06 351.335L1070.43 332.645L1038.54 314.231L1006.18 332.92ZM1071.53 332.645L1103.42 351.059L1135.78 332.37L1103.89 313.955L1071.53 332.645ZM1136.88 332.37L1168.77 350.784L1201.13 332.094L1169.24 313.68L1136.88 332.37ZM1202.23 332.094L1234.12 350.508L1266.48 331.819L1234.6 313.404L1202.23 332.094ZM1267.59 331.819L1299.47 350.233L1331.84 331.543L1299.95 313.129L1267.59 331.819ZM1332.94 331.543L1364.83 349.957L1397.19 331.268L1365.3 312.854L1332.94 331.543ZM1398.29 331.268L1430.18 349.682L1462.54 330.992L1430.65 312.578L1398.29 331.268ZM-6.55113 318.32L25.3363 336.735L57.7003 318.045L25.8129 299.63L-6.55113 318.32ZM58.8014 318.045L90.6889 336.459L123.053 317.769L91.1654 299.355L58.8014 318.045ZM124.154 317.769L156.041 336.184L188.405 317.494L156.518 299.08L124.154 317.769ZM189.507 317.493L221.394 335.908L253.757 317.218L221.87 298.804L189.507 317.493ZM254.859 317.218L286.746 335.633L319.11 316.943L287.223 298.529L254.859 317.218ZM320.212 316.943L352.099 335.357L384.463 316.667L352.576 298.253L320.212 316.943ZM385.564 316.667L417.451 335.082L449.815 316.392L417.928 297.978L385.564 316.667ZM450.917 316.392L482.804 334.806L515.168 316.117L483.281 297.702L450.917 316.392ZM516.27 316.117L548.157 334.531L580.52 315.841L548.634 297.427L516.27 316.117ZM581.622 315.841L613.509 334.255L645.873 315.566L613.987 297.151L581.622 315.841ZM646.975 315.566L678.862 333.98L711.225 315.29L679.339 296.876L646.975 315.566ZM712.328 315.29L744.215 333.704L776.579 315.015L744.692 296.6L712.328 315.29ZM777.68 315.015L809.567 333.429L841.931 314.739L810.044 296.325L777.68 315.015ZM843.033 314.739L874.92 333.153L907.284 314.464L875.397 296.049L843.033 314.739ZM908.385 314.464L940.272 332.878L972.636 314.188L940.749 295.774L908.385 314.464ZM973.738 314.188L1005.62 332.603L1037.99 313.913L1006.1 295.498L973.738 314.188ZM1039.09 313.913L1070.98 332.327L1103.34 313.637L1071.45 295.223L1039.09 313.913ZM1104.44 313.637L1136.33 332.052L1168.69 313.362L1136.81 294.947L1104.44 313.637ZM1169.8 313.362L1201.68 331.776L1234.05 313.086L1202.16 294.672L1169.8 313.362ZM1235.15 313.086L1267.04 331.501L1299.4 312.811L1267.51 294.396L1235.15 313.086ZM1300.5 312.811L1332.39 331.225L1364.75 312.535L1332.86 294.121L1300.5 312.811ZM1365.85 312.535L1397.74 330.95L1430.1 312.26L1398.22 293.846L1365.85 312.535ZM1431.21 312.26L1463.09 330.674L1495.46 311.984L1463.57 293.571L1431.21 312.26ZM-38.9889 299.588L-7.10143 318.002L25.2626 299.312L-6.62483 280.898L-38.9889 299.588ZM26.3637 299.312L58.2511 317.727L90.6152 299.037L58.7277 280.623L26.3637 299.312ZM91.7163 299.036L123.604 317.451L155.967 298.762L124.08 280.347L91.7163 299.036ZM157.069 298.761L188.956 317.176L221.32 298.486L189.432 280.072L157.069 298.761ZM222.421 298.486L254.308 316.9L286.672 298.211L254.785 279.796L222.421 298.486ZM287.774 298.211L319.661 316.625L352.025 297.935L320.137 279.521L287.774 298.211ZM353.127 297.935L385.013 316.349L417.377 297.66L385.491 279.245L353.127 297.935ZM418.479 297.66L450.366 316.074L482.73 297.384L450.843 278.97L418.479 297.66ZM483.832 297.384L515.719 315.799L548.083 297.109L516.196 278.694L483.832 297.384ZM549.185 297.109L581.072 315.523L613.435 296.833L581.548 278.419L549.185 297.109ZM614.537 296.833L646.424 315.248L678.788 296.558L646.901 278.143L614.537 296.833ZM679.89 296.558L711.777 314.972L744.141 296.282L712.253 277.868L679.89 296.558ZM745.242 296.282L777.129 314.697L809.493 296.007L777.606 277.592L745.242 296.282ZM810.594 296.007L842.481 314.421L874.845 295.731L842.958 277.317L810.594 296.007ZM875.948 295.731L907.834 314.146L940.198 295.456L908.312 277.041L875.948 295.731ZM941.3 295.456L973.187 313.87L1005.55 295.18L973.664 276.766L941.3 295.456ZM1006.65 295.18L1038.54 313.595L1070.9 294.905L1039.02 276.491L1006.65 295.18ZM1072.01 294.905L1103.89 313.319L1136.26 294.629L1104.37 276.215L1072.01 294.905ZM1137.36 294.629L1169.24 313.044L1201.61 294.354L1169.72 275.94L1137.36 294.629ZM1202.71 294.354L1234.6 312.768L1266.96 294.078L1235.07 275.664L1202.71 294.354ZM1268.06 294.078L1299.95 312.493L1332.31 293.803L1300.43 275.389L1268.06 294.078ZM1333.42 293.803L1365.3 312.217L1397.67 293.527L1365.78 275.114L1333.42 293.803ZM1398.77 293.527L1430.66 311.942L1463.02 293.252L1431.13 274.838L1398.77 293.527ZM1464.12 293.252L1496.01 311.666L1528.37 292.977L1496.48 274.563L1464.12 293.252ZM-71.4271 280.855L-39.5391 299.27L-7.17566 280.58L-39.0631 262.166L-71.4271 280.855ZM-6.07401 280.58L25.8134 298.995L58.1769 280.305L26.29 261.89L-6.07401 280.58ZM59.2786 280.304L91.166 298.719L123.529 280.029L91.6426 261.615L59.2786 280.304ZM124.631 280.029L156.519 298.444L188.882 279.754L156.995 261.339L124.631 280.029ZM189.983 279.754L221.871 298.168L254.235 279.478L222.347 261.064L189.983 279.754ZM255.336 279.478L287.223 297.893L319.587 279.203L287.7 260.788L255.336 279.478ZM320.689 279.203L352.576 297.617L384.94 278.927L353.052 260.513L320.689 279.203ZM386.041 278.927L417.928 297.342L450.292 278.652L418.405 260.237L386.041 278.927ZM451.394 278.652L483.281 297.066L515.645 278.376L483.758 259.962L451.394 278.652ZM516.747 278.376L548.634 296.791L580.997 278.101L549.111 259.687L516.747 278.376ZM582.1 278.101L613.987 296.515L646.35 277.825L614.463 259.411L582.1 278.101ZM647.452 277.825L679.339 296.24L711.703 277.55L679.816 259.136L647.452 277.825ZM712.804 277.55L744.691 295.964L777.055 277.274L745.168 258.86L712.804 277.55ZM778.157 277.274L810.044 295.689L842.408 276.999L810.521 258.585L778.157 277.274ZM843.509 276.999L875.396 295.413L907.76 276.724L875.873 258.309L843.509 276.999ZM908.862 276.724L940.749 295.138L973.113 276.448L941.226 258.034L908.862 276.724ZM974.215 276.448L1006.1 294.862L1038.47 276.173L1006.58 257.758L974.215 276.448ZM1039.57 276.173L1071.45 294.587L1103.82 275.897L1071.93 257.483L1039.57 276.173ZM1104.92 275.897L1136.81 294.311L1169.17 275.622L1137.28 257.207L1104.92 275.897ZM1170.27 275.622L1202.16 294.036L1234.52 275.346L1202.64 256.932L1170.27 275.622ZM1235.63 275.346L1267.51 293.76L1299.88 275.071L1267.99 256.657L1235.63 275.346ZM1300.98 275.071L1332.86 293.485L1365.23 274.795L1333.34 256.381L1300.98 275.071ZM1366.33 274.795L1398.22 293.21L1430.58 274.52L1398.69 256.106L1366.33 274.795ZM1431.68 274.52L1463.57 292.934L1495.93 274.244L1464.05 255.83L1431.68 274.52ZM1497.04 274.244L1528.92 292.659L1561.29 273.969L1529.4 255.555L1497.04 274.244ZM-103.865 262.123L-71.9774 280.538L-39.6134 261.848L-71.5008 243.433L-103.865 262.123ZM-38.5123 261.847L-6.6243 280.262L25.7392 261.572L-6.14824 243.158L-38.5123 261.847ZM26.8408 261.572L58.7283 279.987L91.0918 261.297L59.2049 242.883L26.8408 261.572ZM92.1934 261.296L124.081 279.711L156.444 261.021L124.557 242.607L92.1934 261.296ZM157.545 261.021L189.433 279.436L221.797 260.746L189.909 242.332L157.545 261.021ZM222.898 260.746L254.785 279.16L287.149 260.47L255.262 242.056L222.898 260.746ZM288.251 260.47L320.138 278.885L352.502 260.195L320.615 241.781L288.251 260.47ZM353.604 260.195L385.491 278.609L417.855 259.919L385.967 241.505L353.604 260.195ZM418.956 259.919L450.843 278.334L483.207 259.644L451.32 241.23L418.956 259.919ZM484.309 259.644L516.196 278.058L548.56 259.369L516.673 240.954L484.309 259.644ZM549.662 259.369L581.548 277.783L613.912 259.093L582.025 240.679L549.662 259.369ZM615.014 259.093L646.901 277.507L679.265 258.818L647.378 240.403L615.014 259.093ZM680.367 258.818L712.253 277.232L744.617 258.542L712.731 240.128L680.367 258.818ZM745.719 258.542L777.606 276.956L809.97 258.267L778.083 239.852L745.719 258.542ZM811.072 258.267L842.958 276.681L875.323 257.991L843.436 239.577L811.072 258.267ZM876.424 257.991L908.311 276.406L940.675 257.716L908.788 239.301L876.424 257.991ZM941.777 257.716L973.664 276.13L1006.03 257.44L974.141 239.026L941.777 257.716ZM1007.13 257.44L1039.02 275.855L1071.38 257.165L1039.49 238.75L1007.13 257.44ZM1072.48 257.165L1104.37 275.579L1136.73 256.889L1104.85 238.475L1072.48 257.165ZM1137.83 256.889L1169.72 275.304L1202.09 256.614L1170.2 238.199L1137.83 256.889ZM1203.19 256.614L1235.07 275.028L1267.44 256.338L1235.55 237.924L1203.19 256.614ZM1268.54 256.338L1300.43 274.753L1332.79 256.063L1300.9 237.649L1268.54 256.338ZM1333.89 256.063L1365.78 274.477L1398.14 255.787L1366.26 237.374L1333.89 256.063ZM1399.24 255.787L1431.13 274.202L1463.5 255.512L1431.61 237.098L1399.24 255.787ZM1464.6 255.512L1496.48 273.926L1528.85 255.236L1496.96 236.823L1464.6 255.512ZM1529.95 255.236L1561.84 273.651L1594.2 254.961L1562.31 236.547L1529.95 255.236ZM-136.303 243.39L-104.415 261.805L-72.0511 243.115L-103.939 224.701L-136.303 243.39ZM-70.95 243.115L-39.0625 261.53L-6.69853 242.84L-38.586 224.426L-70.95 243.115ZM-5.59743 242.839L26.2906 261.254L58.6541 242.565L26.7666 224.15L-5.59743 242.839ZM59.7557 242.564L91.6431 260.979L124.007 242.289L92.1192 223.875L59.7557 242.564ZM125.108 242.289L156.995 260.703L189.359 242.014L157.472 223.599L125.108 242.289ZM190.46 242.014L222.348 260.428L254.712 241.738L222.824 223.324L190.46 242.014ZM255.813 241.738L287.7 260.152L320.064 241.463L288.177 223.048L255.813 241.738ZM321.165 241.463L353.053 259.877L385.417 241.187L353.529 222.773L321.165 241.463ZM386.518 241.187L418.405 259.602L450.769 240.912L418.882 222.497L386.518 241.187ZM451.871 240.912L483.758 259.326L516.122 240.636L484.235 222.222L451.871 240.912ZM517.224 240.636L549.111 259.051L581.475 240.361L549.587 221.946L517.224 240.636ZM582.577 240.361L614.463 258.775L646.827 240.085L614.94 221.671L582.577 240.361ZM647.929 240.085L679.816 258.5L712.18 239.81L680.293 221.395L647.929 240.085ZM713.281 239.81L745.168 258.224L777.532 239.534L745.645 221.12L713.281 239.81ZM778.634 239.534L810.521 257.949L842.885 239.259L810.998 220.844L778.634 239.534ZM843.986 239.259L875.873 257.673L908.237 238.983L876.35 220.569L843.986 239.259ZM909.339 238.983L941.226 257.398L973.59 238.708L941.703 220.294L909.339 238.983ZM974.692 238.708L1006.58 257.122L1038.94 238.432L1007.06 220.018L974.692 238.708ZM1040.04 238.432L1071.93 256.847L1104.3 238.157L1072.41 219.743L1040.04 238.432ZM1105.4 238.157L1137.28 256.571L1169.65 237.881L1137.76 219.467L1105.4 238.157ZM1170.75 237.881L1202.64 256.296L1235 237.606L1203.11 219.192L1170.75 237.881ZM1236.1 237.606L1267.99 256.02L1300.35 237.331L1268.47 218.916L1236.1 237.606ZM1301.45 237.331L1333.34 255.745L1365.71 237.055L1333.82 218.641L1301.45 237.331ZM1366.81 237.055L1398.69 255.469L1431.06 236.78L1399.17 218.366L1366.81 237.055ZM1432.16 236.78L1464.05 255.194L1496.41 236.504L1464.52 218.09L1432.16 236.78ZM1497.51 236.504L1529.4 254.918L1561.76 236.229L1529.88 217.815L1497.51 236.504ZM1562.86 236.229L1594.75 254.643L1627.12 235.953L1595.23 217.539L1562.86 236.229ZM-168.74 224.658L-136.853 243.072L-104.489 224.383L-136.376 205.969L-168.74 224.658ZM-103.388 224.383L-71.5003 242.797L-39.1362 224.108L-71.0237 205.693L-103.388 224.383ZM-38.0351 224.107L-6.14771 242.521L26.2163 223.832L-5.67111 205.418L-38.0351 224.107ZM27.3174 223.832L59.2054 242.247L91.5689 223.557L59.6815 205.142L27.3174 223.832ZM92.67 223.557L124.557 241.971L156.921 223.281L125.034 204.867L92.67 223.557ZM158.023 223.281L189.91 241.696L222.274 223.006L190.387 204.591L158.023 223.281ZM223.375 223.006L255.263 241.42L287.627 222.73L255.739 204.316L223.375 223.006ZM288.728 222.73L320.615 241.145L352.979 222.455L321.092 204.04L288.728 222.73ZM354.08 222.455L385.968 240.869L418.332 222.179L386.444 203.765L354.08 222.455ZM419.433 222.179L451.32 240.594L483.684 221.904L451.797 203.49L419.433 222.179ZM484.786 221.904L516.673 240.318L549.037 221.628L517.149 203.214L484.786 221.904ZM550.138 221.628L582.025 240.043L614.389 221.353L582.502 202.939L550.138 221.628ZM615.491 221.353L647.378 239.767L679.742 221.077L647.855 202.663L615.491 221.353ZM680.844 221.077L712.731 239.492L745.095 220.802L713.208 202.388L680.844 221.077ZM746.196 220.802L778.083 239.216L810.447 220.526L778.56 202.112L746.196 220.802ZM811.549 220.526L843.436 238.941L875.8 220.251L843.913 201.837L811.549 220.526ZM876.901 220.251L908.788 238.665L941.152 219.976L909.265 201.561L876.901 220.251ZM942.254 219.976L974.141 238.39L1006.5 219.7L974.618 201.286L942.254 219.976ZM1007.61 219.7L1039.49 238.114L1071.86 219.425L1039.97 201.01L1007.61 219.7ZM1072.96 219.425L1104.85 237.839L1137.21 219.149L1105.32 200.735L1072.96 219.425ZM1138.31 219.149L1170.2 237.563L1202.56 218.874L1170.68 200.459L1138.31 219.149ZM1203.66 218.874L1235.55 237.288L1267.92 218.598L1236.03 200.184L1203.66 218.874ZM1269.02 218.598L1300.9 237.013L1333.27 218.323L1301.38 199.908L1269.02 218.598ZM1334.37 218.323L1366.26 236.737L1398.62 218.047L1366.73 199.633L1334.37 218.323ZM1399.72 218.047L1431.61 236.462L1463.97 217.772L1432.09 199.358L1399.72 218.047ZM1465.07 217.772L1496.96 236.186L1529.33 217.496L1497.44 199.082L1465.07 217.772ZM1530.43 217.496L1562.31 235.911L1594.68 217.221L1562.79 198.806L1530.43 217.496ZM-201.178 205.926L-169.291 224.34L-136.927 205.65L-168.712 187.295L-168.611 187.119L-201.178 205.926ZM-135.825 205.65L-103.939 224.065L-71.5745 205.375L-103.461 186.961L-135.825 205.65ZM-70.4729 205.375L-38.5854 223.79L-6.22141 205.1L-38.1088 186.685L-70.4729 205.375ZM-5.1203 205.099L26.7672 223.514L59.1306 204.824L27.2437 186.41L-5.1203 205.099ZM60.2323 204.824L92.1197 223.239L124.484 204.549L92.5963 186.135L60.2323 204.824ZM125.585 204.549L157.472 222.963L189.836 204.273L157.949 185.859L125.585 204.549ZM190.937 204.273L222.825 222.688L255.189 203.998L223.301 185.584L190.937 204.273ZM256.29 203.998L288.177 222.412L320.541 203.722L288.654 185.308L256.29 203.998ZM321.643 203.722L353.53 222.137L385.894 203.447L354.007 185.033L321.643 203.722ZM386.995 203.447L418.883 221.861L451.247 203.172L419.359 184.757L386.995 203.447ZM452.348 203.172L484.235 221.586L516.599 202.896L484.712 184.482L452.348 203.172ZM517.701 202.896L549.588 221.31L581.952 202.621L550.064 184.206L517.701 202.896ZM583.053 202.621L614.94 221.035L647.304 202.345L615.417 183.931L583.053 202.621ZM648.406 202.345L680.293 220.759L712.657 202.07L680.77 183.655L648.406 202.345ZM713.758 202.07L745.645 220.484L778.009 201.794L746.122 183.38L713.758 202.07ZM779.111 201.794L810.998 220.208L843.362 201.519L811.475 183.104L779.111 201.794ZM844.464 201.519L876.35 219.933L908.714 201.243L876.828 182.829L844.464 201.519ZM909.816 201.243L941.703 219.658L974.067 200.968L942.18 182.553L909.816 201.243ZM975.169 200.968L1007.06 219.382L1039.42 200.692L1007.53 182.278L975.169 200.968ZM1040.52 200.692L1072.41 219.107L1104.77 200.417L1072.89 182.002L1040.52 200.692ZM1105.87 200.417L1137.76 218.831L1170.12 200.141L1138.24 181.727L1105.87 200.417ZM1171.23 200.141L1203.11 218.556L1235.48 199.866L1203.59 181.451L1171.23 200.141ZM1236.58 199.866L1268.47 218.28L1300.83 199.59L1268.94 181.177L1236.58 199.866ZM1301.93 199.59L1333.82 218.005L1366.18 199.315L1334.3 180.901L1301.93 199.59ZM1367.28 199.315L1399.17 217.729L1431.54 199.039L1399.65 180.626L1367.28 199.315ZM1432.64 199.039L1464.52 217.454L1496.89 198.764L1465 180.35L1432.64 199.039ZM1497.99 198.764L1529.88 217.178L1562.24 198.488L1530.35 180.074L1497.99 198.764ZM-168.263 186.918L-136.376 205.332L-104.012 186.642L-135.797 168.287L-135.696 168.111L-168.263 186.918ZM-102.911 186.642L-71.0237 205.057L-38.6597 186.367L-70.5466 167.953L-102.911 186.642ZM-37.558 186.367L-5.67058 204.781L26.6929 186.092L-5.19398 167.678L-37.558 186.367ZM27.7946 186.092L59.6815 204.506L92.0455 185.817L60.1586 167.402L27.7946 186.092ZM93.1471 185.816L125.035 204.231L157.399 185.541L125.511 167.127L93.1471 185.816ZM158.5 185.541L190.387 203.955L222.751 185.266L190.864 166.851L158.5 185.541ZM223.852 185.266L255.74 203.68L288.104 184.99L256.216 166.576L223.852 185.266ZM289.205 184.99L321.092 203.404L353.456 184.715L321.569 166.3L289.205 184.99ZM354.557 184.714L386.445 203.129L418.809 184.439L386.921 166.025L354.557 184.714ZM419.91 184.439L451.797 202.854L484.161 184.164L452.274 165.749L419.91 184.439ZM485.263 184.164L517.15 202.578L549.514 183.888L517.627 165.474L485.263 184.164ZM550.615 183.888L582.503 202.303L614.866 183.613L582.979 165.198L550.615 183.888ZM615.968 183.613L647.855 202.027L680.219 183.337L648.332 164.923L615.968 183.613ZM681.321 183.337L713.208 201.752L745.572 183.062L713.685 164.647L681.321 183.337ZM746.673 183.062L778.56 201.476L810.924 182.786L779.037 164.372L746.673 183.062ZM812.026 182.786L843.913 201.201L876.277 182.511L844.39 164.096L812.026 182.786ZM877.378 182.511L909.265 200.925L941.629 182.235L909.742 163.821L877.378 182.511ZM942.731 182.235L974.618 200.65L1006.98 181.96L975.095 163.546L942.731 182.235ZM1008.08 181.96L1039.97 200.374L1072.33 181.684L1040.45 163.27L1008.08 181.96ZM1073.44 181.684L1105.32 200.099L1137.69 181.409L1105.8 162.995L1073.44 181.684ZM1138.79 181.409L1170.68 199.823L1203.04 181.133L1171.15 162.719L1138.79 181.409ZM1204.14 181.133L1236.03 199.548L1268.39 180.858L1236.51 162.444L1204.14 181.133ZM1269.49 180.858L1301.38 199.272L1333.74 180.583L1301.86 162.169L1269.49 180.858ZM1334.85 180.583L1366.73 198.997L1399.1 180.307L1367.21 161.893L1334.85 180.583ZM1400.2 180.307L1432.09 198.721L1464.45 180.032L1432.56 161.618L1400.2 180.307ZM1465.55 180.032L1497.44 198.446L1529.8 179.756L1497.92 161.342L1465.55 180.032ZM-135.348 167.91L-103.461 186.324L-71.0974 167.635L-102.883 149.279L-102.781 149.104L-135.348 167.91ZM-69.9957 167.635L-38.1088 186.049L-5.74535 167.36L-37.6322 148.945L-69.9957 167.635ZM-4.64316 167.36L27.2437 185.774L59.6078 167.084L27.7203 148.67L-4.64316 167.36ZM60.7094 167.084L92.5963 185.499L124.96 166.809L93.0729 148.394L60.7094 167.084ZM126.062 166.808L157.949 185.223L190.313 166.533L158.425 148.119L126.062 166.808ZM191.415 166.533L223.302 184.948L255.666 166.258L223.779 147.843L191.415 166.533ZM256.767 166.258L288.655 184.672L321.019 165.982L289.131 147.568L256.767 166.258ZM322.12 165.982L354.007 184.397L386.371 165.707L354.484 147.292L322.12 165.982ZM387.472 165.706L419.36 184.121L451.724 165.431L419.836 147.017L387.472 165.706ZM452.825 165.431L484.712 183.846L517.076 165.156L485.189 146.742L452.825 165.431ZM518.177 165.156L550.065 183.57L582.428 164.88L550.541 146.466L518.177 165.156ZM583.53 164.88L615.417 183.295L647.781 164.605L615.894 146.191L583.53 164.88ZM648.883 164.605L680.769 183.019L713.134 164.329L681.247 145.915L648.883 164.605ZM714.236 164.329L746.122 182.744L778.487 164.054L746.6 145.64L714.236 164.329ZM779.588 164.054L811.475 182.468L843.839 163.779L811.952 145.364L779.588 164.054ZM844.941 163.779L876.828 182.193L909.192 163.503L877.305 145.089L844.941 163.779ZM910.293 163.503L942.18 181.917L974.544 163.228L942.657 144.813L910.293 163.503ZM975.646 163.228L1007.53 181.642L1039.9 162.952L1008.01 144.538L975.646 163.228ZM1041 162.952L1072.89 181.366L1105.25 162.677L1073.36 144.262L1041 162.952ZM1106.35 162.677L1138.24 181.091L1170.6 162.401L1138.71 143.987L1106.35 162.677ZM1171.7 162.401L1203.59 180.815L1235.95 162.126L1204.07 143.711L1171.7 162.401ZM1237.06 162.126L1268.94 180.54L1301.31 161.85L1269.42 143.436L1237.06 162.126ZM1302.41 161.85L1334.3 180.265L1366.66 161.575L1334.77 143.161L1302.41 161.85ZM1367.76 161.575L1399.65 179.989L1432.01 161.299L1400.13 142.885L1367.76 161.575ZM1433.11 161.299L1465 179.714L1497.36 161.024L1465.48 142.609L1433.11 161.299ZM-102.433 148.902L-70.5466 167.317L-38.1831 148.627L-69.9683 130.272L-69.8677 130.096L-102.433 148.902ZM-37.0809 148.627L-5.19398 167.041L27.1695 148.352L-4.71739 129.938L-37.0809 148.627ZM28.2717 148.352L60.1586 166.766L92.5226 148.076L60.6352 129.662L28.2717 148.352ZM93.6242 148.076L125.511 166.491L157.875 147.801L125.988 129.387L93.6242 148.076ZM158.977 147.8L190.864 166.215L223.228 147.525L191.34 129.111L158.977 147.8ZM224.329 147.525L256.217 165.94L288.581 147.25L256.693 128.836L224.329 147.525ZM289.682 147.25L321.569 165.664L353.933 146.975L322.046 128.56L289.682 147.25ZM355.034 146.974L386.922 165.389L419.286 146.699L387.399 128.285L355.034 146.974ZM420.387 146.698L452.275 165.113L484.639 146.424L452.751 128.009L420.387 146.698ZM485.74 146.424L517.627 164.838L549.991 146.148L518.104 127.734L485.74 146.424ZM551.092 146.148L582.979 164.562L615.344 145.873L583.456 127.458L551.092 146.148ZM616.445 145.873L648.332 164.287L680.696 145.597L648.809 127.183L616.445 145.873ZM681.797 145.597L713.684 164.011L746.049 145.322L714.161 126.907L681.797 145.597ZM747.15 145.322L779.037 163.736L811.401 145.046L779.514 126.632L747.15 145.322ZM812.503 145.046L844.39 163.461L876.754 144.771L844.867 126.356L812.503 145.046ZM877.856 144.771L909.742 163.185L942.106 144.495L910.22 126.081L877.856 144.771ZM943.208 144.495L975.095 162.91L1007.46 144.22L975.572 125.805L943.208 144.495ZM1008.56 144.22L1040.45 162.634L1072.81 143.944L1040.92 125.53L1008.56 144.22ZM1073.91 143.944L1105.8 162.359L1138.16 143.669L1106.28 125.254L1073.91 143.944ZM1139.27 143.669L1171.15 162.083L1203.52 143.393L1171.63 124.979L1139.27 143.669ZM1204.62 143.393L1236.5 161.808L1268.87 143.118L1236.98 124.703L1204.62 143.393ZM1269.97 143.118L1301.86 161.532L1334.22 142.842L1302.33 124.428L1269.97 143.118ZM1335.32 142.842L1367.21 161.257L1399.57 142.567L1367.69 124.153L1335.32 142.842ZM1400.68 142.567L1432.56 160.981L1464.93 142.291L1433.04 123.877L1400.68 142.567ZM-69.5186 129.895L-37.6317 148.309L-5.26822 129.62L-37.0535 111.264L-36.9529 111.088L-69.5186 129.895ZM-4.16603 129.62L27.7209 148.033L60.0844 129.344L28.1974 110.93L-4.16603 129.62ZM61.1865 129.344L93.0734 147.758L125.437 129.069L93.55 110.654L61.1865 129.344ZM126.539 129.068L158.426 147.483L190.79 128.793L158.903 110.379L126.539 129.068ZM191.892 128.793L223.779 147.207L256.143 128.518L224.255 110.103L191.892 128.793ZM257.244 128.518L289.132 146.932L321.495 128.242L289.608 109.828L257.244 128.518ZM322.597 128.242L354.484 146.657L386.848 127.967L354.961 109.552L322.597 128.242ZM387.949 127.966L419.837 146.381L452.201 127.691L420.313 109.277L387.949 127.966ZM453.302 127.691L485.189 146.106L517.553 127.416L485.665 109.001L453.302 127.691ZM518.654 127.416L550.541 145.83L582.906 127.14L551.018 108.726L518.654 127.416ZM584.007 127.14L615.894 145.555L648.258 126.865L616.371 108.45L584.007 127.14ZM649.36 126.865L681.247 145.279L713.611 126.589L681.724 108.175L649.36 126.865ZM714.712 126.589L746.599 145.004L778.964 126.314L747.076 107.899L714.712 126.589ZM780.065 126.314L811.952 144.728L844.316 126.038L812.429 107.624L780.065 126.314ZM845.418 126.038L877.305 144.453L909.669 125.763L877.782 107.349L845.418 126.038ZM910.77 125.763L942.657 144.177L975.021 125.487L943.134 107.073L910.77 125.763ZM976.123 125.487L1008.01 143.902L1040.37 125.212L1008.49 106.798L976.123 125.487ZM1041.48 125.212L1073.36 143.626L1105.73 124.936L1073.84 106.522L1041.48 125.212ZM1106.83 124.936L1138.71 143.351L1171.08 124.661L1139.19 106.247L1106.83 124.936ZM1172.18 124.661L1204.07 143.075L1236.43 124.386L1204.54 105.971L1172.18 124.661ZM1237.53 124.386L1269.42 142.8L1301.78 124.11L1269.9 105.696L1237.53 124.386ZM1302.89 124.11L1334.77 142.524L1367.14 123.835L1335.25 105.42L1302.89 124.11ZM1368.24 123.835L1400.13 142.249L1432.49 123.559L1400.6 105.145L1368.24 123.835ZM-36.6043 110.887L-4.71686 129.301L27.6466 110.612L-4.1386 92.256L-4.03801 92.0806L-36.6043 110.887ZM28.7488 110.612L60.6357 129.026L92.9992 110.336L61.1123 91.9219L28.7488 110.612ZM94.1014 110.336L125.988 128.751L158.352 110.061L126.465 91.6464L94.1014 110.336ZM159.454 110.06L191.341 128.475L223.705 109.785L191.817 91.371L159.454 110.06ZM224.807 109.785L256.694 128.2L289.057 109.51L257.17 91.0955L224.807 109.785ZM290.159 109.51L322.047 127.924L354.41 109.234L322.523 90.82L290.159 109.51ZM355.512 109.234L387.399 127.649L419.763 108.959L387.876 90.5445L355.512 109.234ZM420.864 108.958L452.752 127.373L485.115 108.683L453.228 90.269L420.864 108.958ZM486.216 108.683L518.104 127.098L550.468 108.408L518.581 89.993L486.216 108.683ZM551.569 108.408L583.456 126.822L615.821 108.132L583.933 89.7181L551.569 108.408ZM616.922 108.132L648.809 126.547L681.173 107.857L649.286 89.4426L616.922 108.132ZM682.274 107.857L714.161 126.271L746.526 107.582L714.638 89.1671L682.274 107.857ZM747.627 107.582L779.514 125.996L811.879 107.306L779.991 88.8917L747.627 107.582ZM812.98 107.306L844.866 125.72L877.231 107.031L845.344 88.6162L812.98 107.306ZM878.333 107.031L910.219 125.445L942.584 106.755L910.697 88.3407L878.333 107.031ZM943.685 106.755L975.572 125.169L1007.94 106.48L976.049 88.0652L943.685 106.755ZM1009.04 106.48L1040.92 124.894L1073.29 106.204L1041.4 87.7898L1009.04 106.48ZM1074.39 106.204L1106.28 124.618L1138.64 105.929L1106.75 87.5143L1074.39 106.204ZM1139.74 105.929L1171.63 124.343L1203.99 105.653L1172.11 87.2388L1139.74 105.929ZM1205.09 105.653L1236.98 124.068L1269.35 105.378L1237.46 86.9633L1205.09 105.653ZM1270.45 105.378L1302.33 123.792L1334.7 105.102L1302.81 86.6879L1270.45 105.378ZM1335.8 105.102L1367.69 123.517L1400.05 104.827L1368.16 86.4124L1335.8 105.102ZM-3.68945 91.8794L28.1974 110.293L60.5615 91.6039L28.7762 73.2482L28.8768 73.0728L-3.68945 91.8794ZM61.6637 91.6039L93.5506 110.018L125.914 91.3285L94.0271 72.9141L61.6637 91.6039ZM127.016 91.3279L158.903 109.743L191.267 91.053L159.38 72.6386L127.016 91.3279ZM192.369 91.0524L224.256 109.467L256.62 90.7775L224.732 72.3632L192.369 91.0524ZM257.721 90.777L289.609 109.192L321.972 90.502L290.085 72.0877L257.721 90.777ZM323.074 90.5015L354.961 108.916L387.325 90.2266L355.438 71.8122L323.074 90.5015ZM388.427 90.226L420.313 108.641L452.677 89.9511L420.79 71.5367L388.427 90.226ZM453.779 89.9511L485.666 108.365L518.031 89.6756L486.143 71.2612L453.779 89.9511ZM519.131 89.6756L551.018 108.09L583.383 89.4001L551.496 70.9852L519.131 89.6756ZM584.484 89.4001L616.371 107.814L648.736 89.1246L616.848 70.7103L584.484 89.4001ZM649.837 89.1246L681.724 107.539L714.088 88.8492L682.201 70.4348L649.837 89.1246ZM715.189 88.8492L747.076 107.264L779.441 88.5737L747.553 70.1593L715.189 88.8492ZM780.542 88.5737L812.429 106.988L844.793 88.2982L812.906 69.8839L780.542 88.5737ZM845.895 88.2982L877.781 106.713L910.146 88.0227L878.259 69.6084L845.895 88.2982ZM911.247 88.0227L943.134 106.437L975.498 87.7473L943.611 69.3329L911.247 88.0227ZM976.6 87.7473L1008.49 106.162L1040.85 87.4718L1008.96 69.0574L976.6 87.7473ZM1041.95 87.4718L1073.84 105.886L1106.2 87.1963L1074.32 68.782L1041.95 87.4718ZM1107.3 87.1963L1139.19 105.611L1171.56 86.9208L1139.67 68.5065L1107.3 87.1963ZM1172.66 86.9208L1204.54 105.335L1236.91 86.6454L1205.02 68.231L1172.66 86.9208ZM1238.01 86.6454L1269.9 105.06L1302.26 86.3699L1270.37 67.9555L1238.01 86.6454ZM1303.36 86.3699L1335.25 104.784L1367.61 86.0944L1335.73 67.6801L1303.36 86.3699ZM29.2254 72.8711L61.1123 91.2854L93.4763 72.5961L61.6911 54.2404L61.7922 54.0645L29.2254 72.8711ZM94.578 72.5956L126.465 91.0099L158.829 72.3206L126.942 53.9063L94.578 72.5956ZM159.931 72.3201L191.818 90.735L224.182 72.0452L192.295 53.6308L159.931 72.3201ZM225.283 72.0446L257.171 90.4595L289.535 71.7697L257.647 53.3553L225.283 72.0446ZM290.636 71.7692L322.524 90.1841L354.887 71.4942L323 53.0799L290.636 71.7692ZM355.989 71.4937L387.876 89.9086L420.24 71.2188L388.352 52.8044L355.989 71.4937ZM421.341 71.2188L453.228 89.6331L485.592 70.9433L453.705 52.5289L421.341 71.2188ZM486.693 70.9433L518.581 89.3576L550.945 70.6678L519.058 52.2529L486.693 70.9433ZM552.046 70.6678L583.933 89.0822L616.298 70.3923L584.41 51.9774L552.046 70.6678ZM617.399 70.3923L649.286 88.8067L681.651 70.1169L649.763 51.7025L617.399 70.3923ZM682.752 70.1169L714.638 88.5312L747.003 69.8414L715.116 51.427L682.752 70.1169ZM748.104 69.8414L779.991 88.2557L812.355 69.5659L780.468 51.1515L748.104 69.8414ZM813.457 69.5659L845.344 87.9803L877.708 69.2904L845.821 50.8761L813.457 69.5659ZM878.809 69.2904L910.696 87.7048L943.06 69.0149L911.173 50.6006L878.809 69.2904ZM944.162 69.0149L976.049 87.4293L1008.41 68.7395L976.526 50.3251L944.162 69.0149ZM1009.51 68.7395L1041.4 87.1538L1073.77 68.464L1041.88 50.0496L1009.51 68.7395ZM1074.87 68.464L1106.75 86.8783L1139.12 68.1885L1107.23 49.7741L1074.87 68.464ZM1140.22 68.1885L1172.11 86.6029L1204.47 67.913L1172.58 49.4987L1140.22 68.1885ZM1205.57 67.913L1237.46 86.3274L1269.82 67.6375L1237.94 49.2232L1205.57 67.913ZM1270.92 67.6375L1302.81 86.0519L1335.18 67.3621L1303.29 48.9477L1270.92 67.6375ZM62.1403 53.8633L94.0271 72.2776L126.391 53.5883L94.6059 35.2326L94.7071 35.0567L62.1403 53.8633ZM127.493 53.5878L159.38 72.0021L191.744 53.3128L159.857 34.8985L127.493 53.5878ZM192.845 53.3123L224.733 71.7272L257.097 53.0374L225.209 34.623L192.845 53.3123ZM258.198 53.0368L290.085 71.4517L322.449 52.7619L290.562 34.3475L258.198 53.0368ZM323.551 52.7614L355.438 71.1762L387.802 52.4864L355.915 34.0721L323.551 52.7614ZM388.903 52.4864L420.791 70.9008L453.155 52.2109L421.268 33.7966L388.903 52.4864ZM454.256 52.2109L486.143 70.6253L518.507 51.9355L486.62 33.5206L454.256 52.2109ZM519.608 51.9355L551.496 70.3498L583.86 51.66L551.973 33.2451L519.608 51.9355ZM584.961 51.6594L616.848 70.0743L649.213 51.3845L617.325 32.9696L584.961 51.6594ZM650.314 51.3845L682.201 69.7989L714.565 51.109L682.678 32.6947L650.314 51.3845ZM715.666 51.109L747.553 69.5234L779.917 50.8336L748.03 32.4192L715.666 51.109ZM781.019 50.8336L812.906 69.2479L845.27 50.5581L813.383 32.1437L781.019 50.8336ZM846.372 50.5581L878.258 68.9724L910.622 50.2826L878.736 31.8683L846.372 50.5581ZM911.724 50.2826L943.611 68.697L975.975 50.0071L944.088 31.5928L911.724 50.2826ZM977.077 50.0071L1008.96 68.4215L1041.33 49.7317L1009.44 31.3173L977.077 50.0071ZM1042.43 49.7317L1074.32 68.146L1106.68 49.4562L1074.79 31.0418L1042.43 49.7317ZM1107.78 49.4562L1139.67 67.8705L1172.03 49.1807L1140.15 30.7663L1107.78 49.4562ZM1173.13 49.1807L1205.02 67.5951L1237.39 48.9052L1205.5 30.4909L1173.13 49.1807ZM1238.49 48.9052L1270.37 67.3196L1302.74 48.6298L1270.85 30.2154L1238.49 48.9052ZM95.0551 34.8554L126.942 53.2698L159.306 34.5805L127.521 16.2248L127.622 16.0489L95.0551 34.8554ZM160.408 34.58L192.295 52.9943L224.659 34.305L192.772 15.8907L160.408 34.58ZM225.76 34.3045L257.648 52.7194L290.012 34.0295L258.124 15.6152L225.76 34.3045ZM291.113 34.029L323 52.4439L355.364 33.7541L323.477 15.3397L291.113 34.029ZM356.465 33.7541L388.353 52.1684L420.717 33.4786L388.829 15.0637L356.465 33.7541ZM421.818 33.4786L453.705 51.8929L486.069 33.2031L454.182 14.7882L421.818 33.4786ZM487.17 33.2031L519.058 51.6175L551.422 32.9276L519.535 14.5128L487.17 33.2031ZM552.523 32.9276L584.41 51.342L616.775 32.6522L584.887 14.2373L552.523 32.9276ZM617.876 32.6516L649.763 51.0665L682.127 32.3767L650.24 13.9618L617.876 32.6516ZM683.229 32.3767L715.116 50.791L747.48 32.1012L715.593 13.6869L683.229 32.3767ZM748.581 32.1012L780.468 50.5156L812.832 31.8257L780.945 13.4114L748.581 32.1012ZM813.934 31.8257L845.821 50.2401L878.185 31.5503L846.298 13.1359L813.934 31.8257ZM879.286 31.5503L911.173 49.9646L943.537 31.2748L911.65 12.8604L879.286 31.5503ZM944.639 31.2748L976.526 49.6891L1008.89 30.9993L977.003 12.585L944.639 31.2748ZM1009.99 30.9993L1041.88 49.4137L1074.24 30.7238L1042.36 12.3095L1009.99 30.9993ZM1075.34 30.7238L1107.23 49.1382L1139.6 30.4484L1107.71 12.034L1075.34 30.7238ZM1140.7 30.4484L1172.58 48.8627L1204.95 30.1729L1173.06 11.7585L1140.7 30.4484ZM1206.05 30.1729L1237.94 48.5872L1270.3 29.8974L1238.41 11.4831L1206.05 30.1729ZM127.97 15.8476L159.857 34.262L192.221 15.5721L160.436 -2.78302L160.537 -2.95895L127.97 15.8476ZM193.323 15.5721L225.21 33.9865L257.573 15.2972L225.687 -3.11716L193.323 15.5721ZM258.675 15.2967L290.562 33.7115L322.926 15.0217L291.039 -3.39264L258.675 15.2967ZM324.028 15.0217L355.915 33.4361L388.279 14.7462L356.392 -3.66864L324.028 15.0217ZM389.38 14.7462L421.268 33.1606L453.632 14.4708L421.744 -3.94412L389.38 14.7462ZM454.733 14.4708L486.62 32.8851L518.984 14.1953L487.097 -4.2196L454.733 14.4708ZM520.085 14.1953L551.973 32.6096L584.337 13.9198L552.449 -4.49506L520.085 14.1953ZM585.438 13.9193L617.325 32.3342L649.689 13.6443L617.802 -4.77054L585.438 13.9193ZM650.79 13.6438L682.678 32.0587L715.042 13.3689L683.154 -5.04602L650.79 13.6438ZM716.144 13.3689L748.03 31.7832L780.394 13.0934L748.508 -5.32095L716.144 13.3689ZM781.496 13.0934L813.383 31.5078L845.747 12.8179L813.86 -5.59644L781.496 13.0934ZM846.849 12.8179L878.736 31.2323L911.1 12.5424L879.213 -5.87192L846.849 12.8179ZM912.201 12.5424L944.088 30.9568L976.452 12.267L944.565 -6.14737L912.201 12.5424ZM977.554 12.267L1009.44 30.6813L1041.8 11.9915L1009.92 -6.42285L977.554 12.267ZM1042.91 11.9915L1074.79 30.4059L1107.16 11.716L1075.27 -6.69833L1042.91 11.9915ZM1108.26 11.716L1140.15 30.1304L1172.51 11.4406L1140.62 -6.97382L1108.26 11.716ZM1173.61 11.4406L1205.5 29.8549L1237.86 11.1651L1205.98 -7.24927L1173.61 11.4406ZM160.885 -3.16019L192.772 15.2542L225.136 -3.43567L193.35 -21.7908L193.452 -21.9668L160.885 -3.16019ZM226.237 -3.43567L258.124 14.9787L290.488 -3.7106L258.601 -22.125L226.237 -3.43567ZM291.59 -3.7106L323.477 14.7037L355.841 -3.98608L323.954 -22.401L291.59 -3.7106ZM356.943 -3.98608L388.83 14.4283L421.194 -4.26157L389.307 -22.6765L356.943 -3.98608ZM422.295 -4.26208L454.182 14.1528L486.547 -4.53702L454.659 -22.9519L422.295 -4.26208ZM487.648 -4.53702L519.535 13.8773L551.899 -4.8125L520.012 -23.2274L487.648 -4.53702ZM553 -4.81305L584.888 13.6018L617.252 -5.08798L585.364 -23.5029L553 -4.81305ZM618.353 -5.08853L650.24 13.3264L682.604 -5.36346L650.717 -23.7784L618.353 -5.08853ZM683.705 -5.36398L715.593 13.0509L747.957 -5.63895L716.069 -24.0538L683.705 -5.36398ZM749.058 -5.63895L780.945 12.7754L813.309 -5.9144L781.422 -24.3288L749.058 -5.63895ZM814.411 -5.9144L846.298 12.4999L878.662 -6.18988L846.775 -24.6042L814.411 -5.9144ZM879.764 -6.18988L911.65 12.2245L944.014 -6.46536L912.128 -24.8797L879.764 -6.18988ZM945.116 -6.46536L977.002 11.949L1009.37 -6.74084L977.48 -25.1552L945.116 -6.46536ZM1010.47 -6.74084L1042.36 11.6735L1074.72 -7.01633L1042.83 -25.4307L1010.47 -6.74084ZM1075.82 -7.01633L1107.71 11.398L1140.07 -7.29178L1108.19 -25.7061L1075.82 -7.01633ZM1141.17 -7.29178L1173.06 11.1226L1205.42 -7.56726L1173.54 -25.9816L1141.17 -7.29178ZM193.8 -22.168L225.687 -3.75366L258.051 -22.4429L226.265 -40.7986L226.365 -40.9741L193.8 -22.168ZM259.152 -22.4429L291.039 -4.02859L323.404 -22.719L291.516 -41.1333L259.152 -22.4429ZM324.505 -22.7184L356.392 -4.30405L388.756 -22.9939L356.869 -41.4088L324.505 -22.7184ZM389.857 -22.9939L421.744 -4.57953L454.109 -23.2694L422.221 -41.6843L389.857 -22.9939ZM455.21 -23.2699L487.097 -4.85501L519.461 -23.5448L487.574 -41.9597L455.21 -23.2699ZM520.562 -23.5448L552.45 -5.13049L584.814 -23.8203L552.927 -42.2352L520.562 -23.5448ZM585.915 -23.8209L617.802 -5.40598L650.167 -24.0958L618.279 -42.5107L585.915 -23.8209ZM651.268 -24.0963L683.155 -5.68143L715.519 -24.3713L683.632 -42.7862L651.268 -24.0963ZM716.62 -24.3718L748.508 -5.95691L780.872 -24.6468L748.984 -43.0616L716.62 -24.3718ZM781.973 -24.6468L813.86 -6.23239L846.224 -24.9222L814.337 -43.3366L781.973 -24.6468ZM847.326 -24.9222L879.213 -6.50787L911.577 -25.1977L879.69 -43.6121L847.326 -24.9222ZM912.678 -25.1977L944.565 -6.78336L976.929 -25.4732L945.042 -43.8875L912.678 -25.1977ZM978.03 -25.4732L1009.92 -7.05881L1042.28 -25.7487L1010.4 -44.163L978.03 -25.4732ZM1043.38 -25.7487L1075.27 -7.33429L1107.63 -26.0241L1075.75 -44.4385L1043.38 -25.7487ZM1108.74 -26.0241L1140.62 -7.60977L1172.99 -26.2996L1141.1 -44.714L1108.74 -26.0241ZM226.714 -41.1753L258.601 -22.7615L290.965 -41.4513L259.18 -59.807L259.28 -59.9819L226.714 -41.1753ZM292.067 -41.4507L323.954 -23.0364L356.318 -41.7268L324.431 -60.1411L292.067 -41.4507ZM357.42 -41.7262L389.307 -23.3119L421.671 -42.0017L389.784 -60.4166L357.42 -41.7262ZM422.772 -42.0022L454.659 -23.5873L487.024 -42.2772L455.136 -60.6921L422.772 -42.0022ZM488.125 -42.2777L520.012 -23.8628L552.376 -42.5526L520.489 -60.9676L488.125 -42.2777ZM553.477 -42.5532L585.365 -24.1383L617.729 -42.8281L585.841 -61.243L553.477 -42.5532ZM618.83 -42.8287L650.717 -24.4138L683.081 -43.1042L651.194 -61.5185L618.83 -42.8287ZM684.182 -43.1042L716.07 -24.6892L748.434 -43.3791L716.546 -61.794L684.182 -43.1042ZM749.535 -43.3796L781.422 -24.9647L813.786 -43.6546L781.899 -62.0695L749.535 -43.3796ZM814.888 -43.6546L846.775 -25.2402L879.139 -43.93L847.252 -62.3444L814.888 -43.6546ZM880.24 -43.93L912.127 -25.5157L944.492 -44.2055L912.605 -62.6199L880.24 -43.93ZM945.593 -44.2055L977.48 -25.7912L1009.84 -44.481L977.957 -62.8953L945.593 -44.2055ZM1010.95 -44.481L1042.83 -26.0666L1075.2 -44.7565L1043.31 -63.1708L1010.95 -44.481ZM1076.3 -44.7565L1108.18 -26.3421L1140.55 -45.0319L1108.66 -63.4463L1076.3 -44.7565ZM259.629 -60.1836L291.516 -41.7693L323.88 -60.4591L292.094 -78.8148L292.195 -78.9897L259.629 -60.1836ZM324.982 -60.4586L356.869 -42.0442L389.233 -60.7346L357.346 -79.1489L324.982 -60.4586ZM390.334 -60.734L422.221 -42.3197L454.586 -61.0095L422.698 -79.4244L390.334 -60.734ZM455.687 -61.01L487.574 -42.5952L519.938 -61.2855L488.051 -79.6999L455.687 -61.01ZM521.04 -61.2855L552.927 -42.8706L585.291 -61.5605L553.404 -79.9754L521.04 -61.2855ZM586.392 -61.561L618.28 -43.1461L650.644 -61.8365L618.756 -80.2508L586.392 -61.561ZM651.745 -61.8365L683.632 -43.4216L715.996 -62.1114L684.109 -80.5263L651.745 -61.8365ZM717.097 -62.112L748.985 -43.6971L781.349 -62.3869L749.461 -80.8018L717.097 -62.112ZM782.45 -62.3874L814.337 -43.9725L846.701 -62.6624L814.814 -81.0773L782.45 -62.3874ZM847.802 -62.6624L879.689 -44.248L912.054 -62.9378L880.166 -81.3522L847.802 -62.6624ZM913.155 -62.9378L945.042 -44.5235L977.406 -63.2133L945.52 -81.6277L913.155 -62.9378ZM978.508 -63.2133L1010.39 -44.799L1042.76 -63.4888L1010.87 -81.9032L978.508 -63.2133ZM1043.86 -63.4888L1075.75 -45.0744L1108.11 -63.7643L1076.22 -82.1786L1043.86 -63.4888ZM292.544 -79.1914L324.431 -60.7771L356.795 -79.4669L325.009 -97.8226L325.11 -97.998L292.544 -79.1914ZM357.897 -79.4664L389.784 -61.052L422.148 -79.7424L390.261 -98.1568L357.897 -79.4664ZM423.249 -79.7424L455.136 -61.3275L487.501 -80.0179L455.613 -98.4322L423.249 -79.7424ZM488.602 -80.0179L520.489 -61.603L552.853 -80.2933L520.966 -98.7077L488.602 -80.0179ZM553.954 -80.2933L585.841 -61.8784L618.206 -80.5688L586.318 -98.9832L553.954 -80.2933ZM619.307 -80.5688L651.194 -62.1539L683.558 -80.8438L651.671 -99.2587L619.307 -80.5688ZM684.66 -80.8443L716.546 -62.4294L748.91 -81.1192L717.024 -99.5336L684.66 -80.8443ZM750.012 -81.1198L781.9 -62.7049L814.264 -81.3947L782.376 -99.8096L750.012 -81.1198ZM815.364 -81.3947L847.252 -62.9803L879.616 -81.6702L847.729 -100.085L815.364 -81.3947ZM880.717 -81.6702L912.604 -63.2558L944.969 -81.9457L913.081 -100.36L880.717 -81.6702ZM946.07 -81.9457L977.957 -63.5313L1010.32 -82.2211L978.434 -100.635L946.07 -81.9457ZM1011.42 -82.2211L1043.31 -63.8068L1075.67 -82.4966L1043.79 -100.911L1011.42 -82.2211ZM325.458 -98.1992L357.346 -79.7849L389.71 -98.4747L357.924 -116.83L358.025 -117.006L325.458 -98.1992ZM390.812 -98.4742L422.698 -80.0604L455.063 -98.7502L423.176 -117.165L390.812 -98.4742ZM456.164 -98.7502L488.051 -80.3353L520.416 -99.0257L488.528 -117.44L456.164 -98.7502ZM521.517 -99.0257L553.404 -80.6108L585.768 -99.3011L553.881 -117.716L521.517 -99.0257ZM586.869 -99.3011L618.756 -80.8863L651.121 -99.5761L619.233 -117.991L586.869 -99.3011ZM652.222 -99.5766L684.109 -81.1617L716.473 -99.8516L684.586 -118.266L652.222 -99.5766ZM717.574 -99.8521L749.461 -81.4377L781.825 -100.127L749.938 -118.542L717.574 -99.8521ZM782.926 -100.127L814.814 -81.7127L847.178 -100.403L815.291 -118.817L782.926 -100.127ZM848.279 -100.403L880.166 -81.9882L912.531 -100.678L880.643 -119.093L848.279 -100.403ZM913.632 -100.678L945.519 -82.2636L977.884 -100.953L945.996 -119.368L913.632 -100.678ZM978.985 -100.953L1010.87 -82.5391L1043.24 -101.229L1011.35 -119.643L978.985 -100.953ZM358.373 -117.207L390.261 -98.7927L422.625 -117.483L390.839 -135.838L390.94 -136.014L358.373 -117.207ZM423.726 -117.483L455.613 -99.0682L487.978 -117.758L456.09 -136.172L423.726 -117.483ZM489.078 -117.758L520.966 -99.3431L553.33 -118.033L521.443 -136.448L489.078 -117.758ZM554.431 -118.033L586.318 -99.6186L618.683 -118.309L586.796 -136.723L554.431 -118.033ZM619.784 -118.309L651.671 -99.8941L684.035 -118.584L652.148 -136.999L619.784 -118.309ZM685.137 -118.584L717.024 -100.17L749.388 -118.859L717.501 -137.274L685.137 -118.584ZM750.489 -118.859L782.376 -100.445L814.74 -119.135L782.853 -137.55L750.489 -118.859ZM815.841 -119.135L847.729 -100.721L880.093 -119.41L848.205 -137.825L815.841 -119.135ZM881.194 -119.411L913.081 -100.996L945.446 -119.686L913.558 -138.101L881.194 -119.411ZM946.547 -119.686L978.434 -101.271L1010.8 -119.961L978.911 -138.376L946.547 -119.686ZM391.288 -136.215L423.176 -117.801L455.54 -136.49L423.754 -154.846L423.855 -155.021L391.288 -136.215ZM456.641 -136.49L488.528 -118.076L520.893 -136.766L489.005 -155.18L456.641 -136.49ZM521.993 -136.766L553.881 -118.351L586.245 -137.041L554.358 -155.456L521.993 -136.766ZM587.346 -137.041L619.233 -118.626L651.597 -137.316L619.71 -155.731L587.346 -137.041ZM652.698 -137.317L684.586 -118.902L716.95 -137.592L685.062 -156.007L652.698 -137.317ZM718.051 -137.592L749.938 -119.177L782.302 -137.867L750.415 -156.282L718.051 -137.592ZM783.404 -137.867L815.291 -119.453L847.655 -138.143L815.768 -156.558L783.404 -137.867ZM848.756 -138.143L880.644 -119.728L913.008 -138.418L881.12 -156.833L848.756 -138.143ZM914.109 -138.419L945.996 -120.004L978.361 -138.694L946.473 -157.109L914.109 -138.419ZM424.203 -155.223L456.09 -136.808L488.454 -155.498L456.669 -173.854L456.77 -174.029L424.203 -155.223ZM489.556 -155.498L521.443 -137.084L553.807 -155.774L521.92 -174.188L489.556 -155.498ZM554.908 -155.774L586.796 -137.359L619.16 -156.049L587.272 -174.463L554.908 -155.774ZM620.261 -156.049L652.148 -137.635L684.512 -156.324L652.625 -174.739L620.261 -156.049ZM685.613 -156.324L717.501 -137.91L749.865 -156.6L717.977 -175.014L685.613 -156.324ZM750.966 -156.6L782.853 -138.185L815.217 -156.875L783.33 -175.29L750.966 -156.6ZM816.318 -156.876L848.206 -138.461L880.57 -157.15L848.682 -175.565L816.318 -156.876ZM881.671 -157.151L913.558 -138.736L945.923 -157.426L914.035 -175.841L881.671 -157.151ZM457.118 -174.23L489.005 -155.816L521.369 -174.506L489.584 -192.862L489.685 -193.037L457.118 -174.23ZM522.47 -174.506L554.358 -156.092L586.722 -174.781L554.834 -193.196L522.47 -174.506ZM587.823 -174.781L619.71 -156.367L652.074 -175.056L620.187 -193.471L587.823 -174.781ZM653.176 -175.056L685.063 -156.642L717.427 -175.332L685.54 -193.747L653.176 -175.056ZM718.528 -175.332L750.416 -156.918L782.78 -175.607L750.892 -194.022L718.528 -175.332ZM783.881 -175.607L815.768 -157.193L848.132 -175.883L816.245 -194.298L783.881 -175.607ZM849.233 -175.883L881.121 -157.468L913.485 -176.159L881.597 -194.573L849.233 -175.883ZM490.033 -193.238L521.92 -174.824L554.284 -193.514L522.498 -211.869L522.599 -212.045L490.033 -193.238ZM555.385 -193.514L587.273 -175.099L619.637 -193.789L587.749 -212.204L555.385 -193.514ZM620.738 -193.789L652.625 -175.374L684.989 -194.064L653.102 -212.479L620.738 -193.789ZM686.09 -194.064L717.978 -175.65L750.342 -194.34L718.454 -212.755L686.09 -194.064ZM751.443 -194.34L783.33 -175.925L815.694 -194.615L783.807 -213.03L751.443 -194.34ZM816.796 -194.616L848.683 -176.201L881.047 -194.891L849.16 -213.306L816.796 -194.616ZM522.948 -212.246L554.834 -193.832L587.199 -212.522L555.413 -230.877L555.513 -231.052L522.948 -212.246ZM588.3 -212.521L620.187 -194.107L652.552 -212.797L620.664 -231.211L588.3 -212.521ZM653.653 -212.797L685.54 -194.382L717.904 -213.072L686.017 -231.487L653.653 -212.797ZM719.005 -213.072L750.892 -194.658L783.257 -213.347L751.369 -231.762L719.005 -213.072ZM784.358 -213.348L816.245 -194.933L848.609 -213.623L816.722 -232.038L784.358 -213.348ZM555.862 -231.254L587.749 -212.839L620.114 -231.529L588.328 -249.885L588.428 -250.061L555.862 -231.254ZM621.215 -231.529L653.102 -213.115L685.466 -231.804L653.579 -250.219L621.215 -231.529ZM686.568 -231.804L718.454 -213.39L750.819 -232.08L718.932 -250.495L686.568 -231.804ZM751.92 -232.08L783.807 -213.665L816.172 -232.355L784.284 -250.77L751.92 -232.08ZM588.777 -250.262L620.664 -231.847L653.028 -250.537L621.242 -268.893L621.343 -269.068L588.777 -250.262ZM654.13 -250.537L686.017 -232.122L718.381 -250.812L686.494 -269.227L654.13 -250.537ZM719.482 -250.812L751.369 -232.398L783.734 -251.088L751.846 -269.503L719.482 -250.812ZM621.692 -269.27L653.579 -250.855L685.943 -269.545L654.157 -287.901L654.258 -288.076L621.692 -269.27ZM687.045 -269.544L718.932 -251.13L751.296 -269.82L719.409 -288.235L687.045 -269.544ZM654.606 -288.277L686.494 -269.863L718.858 -288.553L687.072 -306.909L687.173 -307.084L654.606 -288.277Z" fill="url(#paint1_radial_12_3160)"/>
<path d="M720.262 -326.393L1674.54 224.689L1674.27 225.167L719.987 -325.916L720.262 -326.393Z" fill="url(#paint2_radial_12_3160)"/>
<defs>
<radialGradient id="paint0_radial_12_3160" cx="0" cy="0" r="1" gradientUnits="userSpaceOnUse" gradientTransform="translate(720 225) rotate(90) scale(292.136 505.731)">
<stop stop-color="#2D63F3"/>
<stop offset="1" stop-color="#2D63F3" stop-opacity="0"/>
</radialGradient>
<radialGradient id="paint1_radial_12_3160" cx="0" cy="0" r="1" gradientUnits="userSpaceOnUse" gradientTransform="translate(720 225) rotate(90) scale(292.136 505.731)">
<stop stop-color="#2D63F3"/>
<stop offset="1" stop-color="#2D63F3" stop-opacity="0"/>
</radialGradient>
<radialGradient id="paint2_radial_12_3160" cx="0" cy="0" r="1" gradientUnits="userSpaceOnUse" gradientTransform="translate(720 225) rotate(90) scale(292.136 505.731)">
<stop stop-color="#2D63F3"/>
<stop offset="1" stop-color="#2D63F3" stop-opacity="0"/>
</radialGradient>
</defs>
</svg>
