<svg width="499" height="236" viewBox="0 0 499 236" fill="none" xmlns="http://www.w3.org/2000/svg">
<g opacity="0.4">
<rect x="12" width="2" height="2" fill="#2D63F3"/>
<rect x="12" y="36" width="2" height="2" fill="#2D63F3"/>
<rect x="12" y="72" width="2" height="2" fill="#2D63F3"/>
<rect x="12" y="108" width="2" height="2" fill="#2D63F3"/>
<rect x="12" y="144" width="2" height="2" fill="#2D63F3"/>
<rect x="12" y="180" width="2" height="2" fill="#2D63F3"/>
<rect x="12" y="216" width="2" height="2" fill="#2D63F3"/>
<rect x="12" y="18" width="2" height="2" fill="#2D63F3"/>
<rect x="12" y="54" width="2" height="2" fill="#2D63F3"/>
<rect x="12" y="90" width="2" height="2" fill="#2D63F3"/>
<rect x="12" y="126" width="2" height="2" fill="#2D63F3"/>
<rect x="12" y="162" width="2" height="2" fill="#2D63F3"/>
<rect x="12" y="198" width="2" height="2" fill="#2D63F3"/>
<rect x="12" y="234" width="2" height="2" fill="#2D63F3"/>
<rect x="30" width="2" height="2" fill="#2D63F3"/>
<rect x="30" y="36" width="2" height="2" fill="#2D63F3"/>
<rect x="30" y="72" width="2" height="2" fill="#2D63F3"/>
<rect x="30" y="108" width="2" height="2" fill="#2D63F3"/>
<rect x="30" y="144" width="2" height="2" fill="#2D63F3"/>
<rect x="30" y="180" width="2" height="2" fill="#2D63F3"/>
<rect x="30" y="216" width="2" height="2" fill="#2D63F3"/>
<rect x="30" y="18" width="2" height="2" fill="#2D63F3"/>
<rect x="30" y="54" width="2" height="2" fill="#2D63F3"/>
<rect x="30" y="90" width="2" height="2" fill="#2D63F3"/>
<rect x="30" y="126" width="2" height="2" fill="#2D63F3"/>
<rect x="30" y="162" width="2" height="2" fill="#2D63F3"/>
<rect x="30" y="198" width="2" height="2" fill="#2D63F3"/>
<rect x="30" y="234" width="2" height="2" fill="#2D63F3"/>
<rect x="48" width="2" height="2" fill="#2D63F3"/>
<rect x="48" y="36" width="2" height="2" fill="#2D63F3"/>
<rect x="48" y="72" width="2" height="2" fill="#2D63F3"/>
<rect x="48" y="108" width="2" height="2" fill="#2D63F3"/>
<rect x="48" y="144" width="2" height="2" fill="#2D63F3"/>
<rect x="48" y="180" width="2" height="2" fill="#2D63F3"/>
<rect x="48" y="216" width="2" height="2" fill="#2D63F3"/>
<rect x="48" y="18" width="2" height="2" fill="#2D63F3"/>
<rect x="48" y="54" width="2" height="2" fill="#2D63F3"/>
<rect x="48" y="90" width="2" height="2" fill="#2D63F3"/>
<rect x="48" y="126" width="2" height="2" fill="#2D63F3"/>
<rect x="48" y="162" width="2" height="2" fill="#2D63F3"/>
<rect x="48" y="198" width="2" height="2" fill="#2D63F3"/>
<rect x="48" y="234" width="2" height="2" fill="#2D63F3"/>
<rect x="66" width="2" height="2" fill="#2D63F3"/>
<rect x="66" y="36" width="2" height="2" fill="#2D63F3"/>
<rect x="66" y="72" width="2" height="2" fill="#2D63F3"/>
<rect x="66" y="108" width="2" height="2" fill="#2D63F3"/>
<rect x="66" y="144" width="2" height="2" fill="#2D63F3"/>
<rect x="66" y="180" width="2" height="2" fill="#2D63F3"/>
<rect x="66" y="216" width="2" height="2" fill="#2D63F3"/>
<rect x="66" y="18" width="2" height="2" fill="#2D63F3"/>
<rect x="66" y="54" width="2" height="2" fill="#2D63F3"/>
<rect x="66" y="90" width="2" height="2" fill="#2D63F3"/>
<rect x="66" y="126" width="2" height="2" fill="#2D63F3"/>
<rect x="66" y="162" width="2" height="2" fill="#2D63F3"/>
<rect x="66" y="198" width="2" height="2" fill="#2D63F3"/>
<rect x="66" y="234" width="2" height="2" fill="#2D63F3"/>
<rect x="84" width="2" height="2" fill="#2D63F3"/>
<rect x="84" y="36" width="2" height="2" fill="#2D63F3"/>
<rect x="84" y="72" width="2" height="2" fill="#2D63F3"/>
<rect x="84" y="108" width="2" height="2" fill="#2D63F3"/>
<rect x="84" y="144" width="2" height="2" fill="#2D63F3"/>
<rect x="84" y="180" width="2" height="2" fill="#2D63F3"/>
<rect x="84" y="216" width="2" height="2" fill="#2D63F3"/>
<rect x="84" y="18" width="2" height="2" fill="#2D63F3"/>
<rect x="84" y="54" width="2" height="2" fill="#2D63F3"/>
<rect x="84" y="90" width="2" height="2" fill="#2D63F3"/>
<rect x="84" y="126" width="2" height="2" fill="#2D63F3"/>
<rect x="84" y="162" width="2" height="2" fill="#2D63F3"/>
<rect x="84" y="198" width="2" height="2" fill="#2D63F3"/>
<rect x="84" y="234" width="2" height="2" fill="#2D63F3"/>
<rect x="102" width="2" height="2" fill="#2D63F3"/>
<rect x="102" y="36" width="2" height="2" fill="#2D63F3"/>
<rect x="102" y="72" width="2" height="2" fill="#2D63F3"/>
<rect x="102" y="108" width="2" height="2" fill="#2D63F3"/>
<rect x="102" y="144" width="2" height="2" fill="#2D63F3"/>
<rect x="102" y="180" width="2" height="2" fill="#2D63F3"/>
<rect x="102" y="216" width="2" height="2" fill="#2D63F3"/>
<rect x="102" y="18" width="2" height="2" fill="#2D63F3"/>
<rect x="102" y="54" width="2" height="2" fill="#2D63F3"/>
<rect x="102" y="90" width="2" height="2" fill="#2D63F3"/>
<rect x="102" y="126" width="2" height="2" fill="#2D63F3"/>
<rect x="102" y="162" width="2" height="2" fill="#2D63F3"/>
<rect x="102" y="198" width="2" height="2" fill="#2D63F3"/>
<rect x="102" y="234" width="2" height="2" fill="#2D63F3"/>
<rect x="120" width="2" height="2" fill="#2D63F3"/>
<rect x="120" y="36" width="2" height="2" fill="#2D63F3"/>
<rect x="120" y="72" width="2" height="2" fill="#2D63F3"/>
<rect x="120" y="108" width="2" height="2" fill="#2D63F3"/>
<rect x="120" y="144" width="2" height="2" fill="#2D63F3"/>
<rect x="120" y="180" width="2" height="2" fill="#2D63F3"/>
<rect x="120" y="216" width="2" height="2" fill="#2D63F3"/>
<rect x="120" y="18" width="2" height="2" fill="#2D63F3"/>
<rect x="120" y="54" width="2" height="2" fill="#2D63F3"/>
<rect x="120" y="90" width="2" height="2" fill="#2D63F3"/>
<rect x="120" y="126" width="2" height="2" fill="#2D63F3"/>
<rect x="120" y="162" width="2" height="2" fill="#2D63F3"/>
<rect x="120" y="198" width="2" height="2" fill="#2D63F3"/>
<rect x="120" y="234" width="2" height="2" fill="#2D63F3"/>
<rect x="138" width="2" height="2" fill="#2D63F3"/>
<rect x="138" y="36" width="2" height="2" fill="#2D63F3"/>
<rect x="138" y="72" width="2" height="2" fill="#2D63F3"/>
<rect x="138" y="108" width="2" height="2" fill="#2D63F3"/>
<rect x="138" y="144" width="2" height="2" fill="#2D63F3"/>
<rect x="138" y="180" width="2" height="2" fill="#2D63F3"/>
<rect x="138" y="216" width="2" height="2" fill="#2D63F3"/>
<rect x="138" y="18" width="2" height="2" fill="#2D63F3"/>
<rect x="138" y="54" width="2" height="2" fill="#2D63F3"/>
<rect x="138" y="90" width="2" height="2" fill="#2D63F3"/>
<rect x="138" y="126" width="2" height="2" fill="#2D63F3"/>
<rect x="138" y="162" width="2" height="2" fill="#2D63F3"/>
<rect x="138" y="198" width="2" height="2" fill="#2D63F3"/>
<rect x="138" y="234" width="2" height="2" fill="#2D63F3"/>
<rect x="156" width="2" height="2" fill="#2D63F3"/>
<rect x="156" y="36" width="2" height="2" fill="#2D63F3"/>
<rect x="156" y="72" width="2" height="2" fill="#2D63F3"/>
<rect x="156" y="108" width="2" height="2" fill="#2D63F3"/>
<rect x="156" y="144" width="2" height="2" fill="#2D63F3"/>
<rect x="156" y="180" width="2" height="2" fill="#2D63F3"/>
<rect x="156" y="216" width="2" height="2" fill="#2D63F3"/>
<rect x="156" y="18" width="2" height="2" fill="#2D63F3"/>
<rect x="156" y="54" width="2" height="2" fill="#2D63F3"/>
<rect x="156" y="90" width="2" height="2" fill="#2D63F3"/>
<rect x="156" y="126" width="2" height="2" fill="#2D63F3"/>
<rect x="156" y="162" width="2" height="2" fill="#2D63F3"/>
<rect x="156" y="198" width="2" height="2" fill="#2D63F3"/>
<rect x="156" y="234" width="2" height="2" fill="#2D63F3"/>
<rect x="174" width="2" height="2" fill="#2D63F3"/>
<rect x="174" y="36" width="2" height="2" fill="#2D63F3"/>
<rect x="174" y="72" width="2" height="2" fill="#2D63F3"/>
<rect x="174" y="108" width="2" height="2" fill="#2D63F3"/>
<rect x="174" y="144" width="2" height="2" fill="#2D63F3"/>
<rect x="174" y="180" width="2" height="2" fill="#2D63F3"/>
<rect x="174" y="216" width="2" height="2" fill="#2D63F3"/>
<rect x="174" y="18" width="2" height="2" fill="#2D63F3"/>
<rect x="174" y="54" width="2" height="2" fill="#2D63F3"/>
<rect x="174" y="90" width="2" height="2" fill="#2D63F3"/>
<rect x="174" y="126" width="2" height="2" fill="#2D63F3"/>
<rect x="174" y="162" width="2" height="2" fill="#2D63F3"/>
<rect x="174" y="198" width="2" height="2" fill="#2D63F3"/>
<rect x="174" y="234" width="2" height="2" fill="#2D63F3"/>
<rect x="192" width="2" height="2" fill="#2D63F3"/>
<rect x="192" y="36" width="2" height="2" fill="#2D63F3"/>
<rect x="192" y="72" width="2" height="2" fill="#2D63F3"/>
<rect x="192" y="108" width="2" height="2" fill="#2D63F3"/>
<rect x="192" y="144" width="2" height="2" fill="#2D63F3"/>
<rect x="192" y="180" width="2" height="2" fill="#2D63F3"/>
<rect x="192" y="216" width="2" height="2" fill="#2D63F3"/>
<rect x="192" y="18" width="2" height="2" fill="#2D63F3"/>
<rect x="192" y="54" width="2" height="2" fill="#2D63F3"/>
<rect x="192" y="90" width="2" height="2" fill="#2D63F3"/>
<rect x="192" y="126" width="2" height="2" fill="#2D63F3"/>
<rect x="192" y="162" width="2" height="2" fill="#2D63F3"/>
<rect x="192" y="198" width="2" height="2" fill="#2D63F3"/>
<rect x="192" y="234" width="2" height="2" fill="#2D63F3"/>
<rect x="210" width="2" height="2" fill="#2D63F3"/>
<rect x="210" y="36" width="2" height="2" fill="#2D63F3"/>
<rect x="210" y="72" width="2" height="2" fill="#2D63F3"/>
<rect x="210" y="108" width="2" height="2" fill="#2D63F3"/>
<rect x="210" y="144" width="2" height="2" fill="#2D63F3"/>
<rect x="210" y="180" width="2" height="2" fill="#2D63F3"/>
<rect x="210" y="216" width="2" height="2" fill="#2D63F3"/>
<rect x="210" y="18" width="2" height="2" fill="#2D63F3"/>
<rect x="210" y="54" width="2" height="2" fill="#2D63F3"/>
<rect x="210" y="90" width="2" height="2" fill="#2D63F3"/>
<rect x="210" y="126" width="2" height="2" fill="#2D63F3"/>
<rect x="210" y="162" width="2" height="2" fill="#2D63F3"/>
<rect x="210" y="198" width="2" height="2" fill="#2D63F3"/>
<rect x="210" y="234" width="2" height="2" fill="#2D63F3"/>
<rect x="227" width="2" height="2" fill="#2D63F3"/>
<rect x="227" y="36" width="2" height="2" fill="#2D63F3"/>
<rect x="227" y="72" width="2" height="2" fill="#2D63F3"/>
<rect x="227" y="108" width="2" height="2" fill="#2D63F3"/>
<rect x="227" y="144" width="2" height="2" fill="#2D63F3"/>
<rect x="227" y="180" width="2" height="2" fill="#2D63F3"/>
<rect x="227" y="216" width="2" height="2" fill="#2D63F3"/>
<rect x="227" y="18" width="2" height="2" fill="#2D63F3"/>
<rect x="227" y="54" width="2" height="2" fill="#2D63F3"/>
<rect x="227" y="90" width="2" height="2" fill="#2D63F3"/>
<rect x="227" y="126" width="2" height="2" fill="#2D63F3"/>
<rect x="227" y="162" width="2" height="2" fill="#2D63F3"/>
<rect x="227" y="198" width="2" height="2" fill="#2D63F3"/>
<rect x="227" y="234" width="2" height="2" fill="#2D63F3"/>
<rect x="245" width="2" height="2" fill="#2D63F3"/>
<rect x="245" y="36" width="2" height="2" fill="#2D63F3"/>
<rect x="245" y="72" width="2" height="2" fill="#2D63F3"/>
<rect x="245" y="108" width="2" height="2" fill="#2D63F3"/>
<rect x="245" y="144" width="2" height="2" fill="#2D63F3"/>
<rect x="245" y="180" width="2" height="2" fill="#2D63F3"/>
<rect x="245" y="216" width="2" height="2" fill="#2D63F3"/>
<rect x="245" y="18" width="2" height="2" fill="#2D63F3"/>
<rect x="245" y="54" width="2" height="2" fill="#2D63F3"/>
<rect x="245" y="90" width="2" height="2" fill="#2D63F3"/>
<rect x="245" y="126" width="2" height="2" fill="#2D63F3"/>
<rect x="245" y="162" width="2" height="2" fill="#2D63F3"/>
<rect x="245" y="198" width="2" height="2" fill="#2D63F3"/>
<rect x="245" y="234" width="2" height="2" fill="#2D63F3"/>
<rect x="263" width="2" height="2" fill="#2D63F3"/>
<rect x="263" y="36" width="2" height="2" fill="#2D63F3"/>
<rect x="263" y="72" width="2" height="2" fill="#2D63F3"/>
<rect x="263" y="108" width="2" height="2" fill="#2D63F3"/>
<rect x="263" y="144" width="2" height="2" fill="#2D63F3"/>
<rect x="263" y="180" width="2" height="2" fill="#2D63F3"/>
<rect x="263" y="216" width="2" height="2" fill="#2D63F3"/>
<rect x="263" y="18" width="2" height="2" fill="#2D63F3"/>
<rect x="263" y="54" width="2" height="2" fill="#2D63F3"/>
<rect x="263" y="90" width="2" height="2" fill="#2D63F3"/>
<rect x="263" y="126" width="2" height="2" fill="#2D63F3"/>
<rect x="263" y="162" width="2" height="2" fill="#2D63F3"/>
<rect x="263" y="198" width="2" height="2" fill="#2D63F3"/>
<rect x="263" y="234" width="2" height="2" fill="#2D63F3"/>
<rect x="281" width="2" height="2" fill="#2D63F3"/>
<rect x="281" y="36" width="2" height="2" fill="#2D63F3"/>
<rect x="281" y="72" width="2" height="2" fill="#2D63F3"/>
<rect x="281" y="108" width="2" height="2" fill="#2D63F3"/>
<rect x="281" y="144" width="2" height="2" fill="#2D63F3"/>
<rect x="281" y="180" width="2" height="2" fill="#2D63F3"/>
<rect x="281" y="216" width="2" height="2" fill="#2D63F3"/>
<rect x="281" y="18" width="2" height="2" fill="#2D63F3"/>
<rect x="281" y="54" width="2" height="2" fill="#2D63F3"/>
<rect x="281" y="90" width="2" height="2" fill="#2D63F3"/>
<rect x="281" y="126" width="2" height="2" fill="#2D63F3"/>
<rect x="281" y="162" width="2" height="2" fill="#2D63F3"/>
<rect x="281" y="198" width="2" height="2" fill="#2D63F3"/>
<rect x="281" y="234" width="2" height="2" fill="#2D63F3"/>
<rect x="299" width="2" height="2" fill="#2D63F3"/>
<rect x="299" y="36" width="2" height="2" fill="#2D63F3"/>
<rect x="299" y="72" width="2" height="2" fill="#2D63F3"/>
<rect x="299" y="108" width="2" height="2" fill="#2D63F3"/>
<rect x="299" y="144" width="2" height="2" fill="#2D63F3"/>
<rect x="299" y="180" width="2" height="2" fill="#2D63F3"/>
<rect x="299" y="216" width="2" height="2" fill="#2D63F3"/>
<rect x="299" y="18" width="2" height="2" fill="#2D63F3"/>
<rect x="299" y="54" width="2" height="2" fill="#2D63F3"/>
<rect x="299" y="90" width="2" height="2" fill="#2D63F3"/>
<rect x="299" y="126" width="2" height="2" fill="#2D63F3"/>
<rect x="299" y="162" width="2" height="2" fill="#2D63F3"/>
<rect x="299" y="198" width="2" height="2" fill="#2D63F3"/>
<rect x="299" y="234" width="2" height="2" fill="#2D63F3"/>
<rect x="317" width="2" height="2" fill="#2D63F3"/>
<rect x="317" y="36" width="2" height="2" fill="#2D63F3"/>
<rect x="317" y="72" width="2" height="2" fill="#2D63F3"/>
<rect x="317" y="108" width="2" height="2" fill="#2D63F3"/>
<rect x="317" y="144" width="2" height="2" fill="#2D63F3"/>
<rect x="317" y="180" width="2" height="2" fill="#2D63F3"/>
<rect x="317" y="216" width="2" height="2" fill="#2D63F3"/>
<rect x="317" y="18" width="2" height="2" fill="#2D63F3"/>
<rect x="317" y="54" width="2" height="2" fill="#2D63F3"/>
<rect x="317" y="90" width="2" height="2" fill="#2D63F3"/>
<rect x="317" y="126" width="2" height="2" fill="#2D63F3"/>
<rect x="317" y="162" width="2" height="2" fill="#2D63F3"/>
<rect x="317" y="198" width="2" height="2" fill="#2D63F3"/>
<rect x="317" y="234" width="2" height="2" fill="#2D63F3"/>
<rect x="335" width="2" height="2" fill="#2D63F3"/>
<rect x="335" y="36" width="2" height="2" fill="#2D63F3"/>
<rect x="335" y="72" width="2" height="2" fill="#2D63F3"/>
<rect x="335" y="108" width="2" height="2" fill="#2D63F3"/>
<rect x="335" y="144" width="2" height="2" fill="#2D63F3"/>
<rect x="335" y="180" width="2" height="2" fill="#2D63F3"/>
<rect x="335" y="216" width="2" height="2" fill="#2D63F3"/>
<rect x="335" y="18" width="2" height="2" fill="#2D63F3"/>
<rect x="335" y="54" width="2" height="2" fill="#2D63F3"/>
<rect x="335" y="90" width="2" height="2" fill="#2D63F3"/>
<rect x="335" y="126" width="2" height="2" fill="#2D63F3"/>
<rect x="335" y="162" width="2" height="2" fill="#2D63F3"/>
<rect x="335" y="198" width="2" height="2" fill="#2D63F3"/>
<rect x="335" y="234" width="2" height="2" fill="#2D63F3"/>
<rect x="353" width="2" height="2" fill="#2D63F3"/>
<rect x="353" y="36" width="2" height="2" fill="#2D63F3"/>
<rect x="353" y="72" width="2" height="2" fill="#2D63F3"/>
<rect x="353" y="108" width="2" height="2" fill="#2D63F3"/>
<rect x="353" y="144" width="2" height="2" fill="#2D63F3"/>
<rect x="353" y="180" width="2" height="2" fill="#2D63F3"/>
<rect x="353" y="216" width="2" height="2" fill="#2D63F3"/>
<rect x="353" y="18" width="2" height="2" fill="#2D63F3"/>
<rect x="353" y="54" width="2" height="2" fill="#2D63F3"/>
<rect x="353" y="90" width="2" height="2" fill="#2D63F3"/>
<rect x="353" y="126" width="2" height="2" fill="#2D63F3"/>
<rect x="353" y="162" width="2" height="2" fill="#2D63F3"/>
<rect x="353" y="198" width="2" height="2" fill="#2D63F3"/>
<rect x="353" y="234" width="2" height="2" fill="#2D63F3"/>
<rect x="371" width="2" height="2" fill="#2D63F3"/>
<rect x="371" y="36" width="2" height="2" fill="#2D63F3"/>
<rect x="371" y="72" width="2" height="2" fill="#2D63F3"/>
<rect x="371" y="108" width="2" height="2" fill="#2D63F3"/>
<rect x="371" y="144" width="2" height="2" fill="#2D63F3"/>
<rect x="371" y="180" width="2" height="2" fill="#2D63F3"/>
<rect x="371" y="216" width="2" height="2" fill="#2D63F3"/>
<rect x="371" y="18" width="2" height="2" fill="#2D63F3"/>
<rect x="371" y="54" width="2" height="2" fill="#2D63F3"/>
<rect x="371" y="90" width="2" height="2" fill="#2D63F3"/>
<rect x="371" y="126" width="2" height="2" fill="#2D63F3"/>
<rect x="371" y="162" width="2" height="2" fill="#2D63F3"/>
<rect x="371" y="198" width="2" height="2" fill="#2D63F3"/>
<rect x="371" y="234" width="2" height="2" fill="#2D63F3"/>
<rect x="389" width="2" height="2" fill="#2D63F3"/>
<rect x="389" y="36" width="2" height="2" fill="#2D63F3"/>
<rect x="389" y="72" width="2" height="2" fill="#2D63F3"/>
<rect x="389" y="108" width="2" height="2" fill="#2D63F3"/>
<rect x="389" y="144" width="2" height="2" fill="#2D63F3"/>
<rect x="389" y="180" width="2" height="2" fill="#2D63F3"/>
<rect x="389" y="216" width="2" height="2" fill="#2D63F3"/>
<rect x="389" y="18" width="2" height="2" fill="#2D63F3"/>
<rect x="389" y="54" width="2" height="2" fill="#2D63F3"/>
<rect x="389" y="90" width="2" height="2" fill="#2D63F3"/>
<rect x="389" y="126" width="2" height="2" fill="#2D63F3"/>
<rect x="389" y="162" width="2" height="2" fill="#2D63F3"/>
<rect x="389" y="198" width="2" height="2" fill="#2D63F3"/>
<rect x="389" y="234" width="2" height="2" fill="#2D63F3"/>
<rect x="407" width="2" height="2" fill="#2D63F3"/>
<rect x="407" y="36" width="2" height="2" fill="#2D63F3"/>
<rect x="407" y="72" width="2" height="2" fill="#2D63F3"/>
<rect x="407" y="108" width="2" height="2" fill="#2D63F3"/>
<rect x="407" y="144" width="2" height="2" fill="#2D63F3"/>
<rect x="407" y="180" width="2" height="2" fill="#2D63F3"/>
<rect x="407" y="216" width="2" height="2" fill="#2D63F3"/>
<rect x="407" y="18" width="2" height="2" fill="#2D63F3"/>
<rect x="407" y="54" width="2" height="2" fill="#2D63F3"/>
<rect x="407" y="90" width="2" height="2" fill="#2D63F3"/>
<rect x="407" y="126" width="2" height="2" fill="#2D63F3"/>
<rect x="407" y="162" width="2" height="2" fill="#2D63F3"/>
<rect x="407" y="198" width="2" height="2" fill="#2D63F3"/>
<rect x="407" y="234" width="2" height="2" fill="#2D63F3"/>
<rect x="425" width="2" height="2" fill="#2D63F3"/>
<rect x="425" y="36" width="2" height="2" fill="#2D63F3"/>
<rect x="425" y="72" width="2" height="2" fill="#2D63F3"/>
<rect x="425" y="108" width="2" height="2" fill="#2D63F3"/>
<rect x="425" y="144" width="2" height="2" fill="#2D63F3"/>
<rect x="425" y="180" width="2" height="2" fill="#2D63F3"/>
<rect x="425" y="216" width="2" height="2" fill="#2D63F3"/>
<rect x="425" y="18" width="2" height="2" fill="#2D63F3"/>
<rect x="425" y="54" width="2" height="2" fill="#2D63F3"/>
<rect x="425" y="90" width="2" height="2" fill="#2D63F3"/>
<rect x="425" y="126" width="2" height="2" fill="#2D63F3"/>
<rect x="425" y="162" width="2" height="2" fill="#2D63F3"/>
<rect x="425" y="198" width="2" height="2" fill="#2D63F3"/>
<rect x="425" y="234" width="2" height="2" fill="#2D63F3"/>
<rect x="443" width="2" height="2" fill="#2D63F3"/>
<rect x="443" y="36" width="2" height="2" fill="#2D63F3"/>
<rect x="443" y="72" width="2" height="2" fill="#2D63F3"/>
<rect x="443" y="108" width="2" height="2" fill="#2D63F3"/>
<rect x="443" y="144" width="2" height="2" fill="#2D63F3"/>
<rect x="443" y="180" width="2" height="2" fill="#2D63F3"/>
<rect x="443" y="216" width="2" height="2" fill="#2D63F3"/>
<rect x="443" y="18" width="2" height="2" fill="#2D63F3"/>
<rect x="443" y="54" width="2" height="2" fill="#2D63F3"/>
<rect x="443" y="90" width="2" height="2" fill="#2D63F3"/>
<rect x="443" y="126" width="2" height="2" fill="#2D63F3"/>
<rect x="443" y="162" width="2" height="2" fill="#2D63F3"/>
<rect x="443" y="198" width="2" height="2" fill="#2D63F3"/>
<rect x="443" y="234" width="2" height="2" fill="#2D63F3"/>
<rect x="461" width="2" height="2" fill="#2D63F3"/>
<rect x="461" y="36" width="2" height="2" fill="#2D63F3"/>
<rect x="461" y="72" width="2" height="2" fill="#2D63F3"/>
<rect x="461" y="108" width="2" height="2" fill="#2D63F3"/>
<rect x="461" y="144" width="2" height="2" fill="#2D63F3"/>
<rect x="461" y="180" width="2" height="2" fill="#2D63F3"/>
<rect x="461" y="216" width="2" height="2" fill="#2D63F3"/>
<rect x="461" y="18" width="2" height="2" fill="#2D63F3"/>
<rect x="461" y="54" width="2" height="2" fill="#2D63F3"/>
<rect x="461" y="90" width="2" height="2" fill="#2D63F3"/>
<rect x="461" y="126" width="2" height="2" fill="#2D63F3"/>
<rect x="461" y="162" width="2" height="2" fill="#2D63F3"/>
<rect x="461" y="198" width="2" height="2" fill="#2D63F3"/>
<rect x="461" y="234" width="2" height="2" fill="#2D63F3"/>
<rect x="479" width="2" height="2" fill="#2D63F3"/>
<rect x="479" y="36" width="2" height="2" fill="#2D63F3"/>
<rect x="479" y="72" width="2" height="2" fill="#2D63F3"/>
<rect x="479" y="108" width="2" height="2" fill="#2D63F3"/>
<rect x="479" y="144" width="2" height="2" fill="#2D63F3"/>
<rect x="479" y="180" width="2" height="2" fill="#2D63F3"/>
<rect x="479" y="216" width="2" height="2" fill="#2D63F3"/>
<rect x="479" y="18" width="2" height="2" fill="#2D63F3"/>
<rect x="479" y="54" width="2" height="2" fill="#2D63F3"/>
<rect x="479" y="90" width="2" height="2" fill="#2D63F3"/>
<rect x="479" y="126" width="2" height="2" fill="#2D63F3"/>
<rect x="479" y="162" width="2" height="2" fill="#2D63F3"/>
<rect x="479" y="198" width="2" height="2" fill="#2D63F3"/>
<rect x="479" y="234" width="2" height="2" fill="#2D63F3"/>
<rect x="497" width="2" height="2" fill="#2D63F3"/>
<rect x="497" y="36" width="2" height="2" fill="#2D63F3"/>
<rect x="497" y="72" width="2" height="2" fill="#2D63F3"/>
<rect x="497" y="108" width="2" height="2" fill="#2D63F3"/>
<rect x="497" y="144" width="2" height="2" fill="#2D63F3"/>
<rect x="497" y="180" width="2" height="2" fill="#2D63F3"/>
<rect x="497" y="216" width="2" height="2" fill="#2D63F3"/>
<rect x="497" y="18" width="2" height="2" fill="#2D63F3"/>
<rect x="497" y="54" width="2" height="2" fill="#2D63F3"/>
<rect x="497" y="90" width="2" height="2" fill="#2D63F3"/>
<rect x="497" y="126" width="2" height="2" fill="#2D63F3"/>
<rect x="497" y="162" width="2" height="2" fill="#2D63F3"/>
<rect x="497" y="198" width="2" height="2" fill="#2D63F3"/>
<rect x="497" y="234" width="2" height="2" fill="#2D63F3"/>
</g>
</svg>
